<?xml version="1.0" standalone="no"?>
<!DOCTYPE svg PUBLIC "-//W3C//DTD SVG 1.1//EN" "http://www.w3.org/Graphics/SVG/1.1/DTD/svg11.dtd" >
<svg xmlns="http://www.w3.org/2000/svg">
<metadata></metadata>
<defs>
<font id="flexoitalic" horiz-adv-x="1321" >
<font-face units-per-em="2048" ascent="1618" descent="-430" />
<missing-glyph horiz-adv-x="583" />
<glyph unicode="&#xfb01;" horiz-adv-x="1165" d="M147 976l20 118h190l18 118q25 157 116.5 238.5t244.5 81.5q45 0 90 -8l-29 -110h-51q-192 0 -224 -196l-19 -124h625l-174 -1094h-147l155 976h-478l-155 -976h-145l155 976h-192zM1013 1378q0 2 5 44q10 62 32.5 86t72.5 24q41 0 58 -15t17 -51q0 -10 -4 -44 q-9 -61 -31.5 -84.5t-74.5 -23.5q-41 0 -58 14.5t-17 49.5z" />
<glyph unicode="&#xfb02;" horiz-adv-x="1168" d="M147 976l19 118h191l18 118q25 157 116 238.5t245 81.5q197 0 449 -15l-193 -1223q-8 -45 -8 -94q0 -103 50 -183l-135 -66q-65 93 -65 221q0 43 10 111l178 1131h-276q-192 0 -224 -196l-19 -124h241l-18 -118h-242l-155 -976h-145l154 976h-191z" />
<glyph unicode="&#xfb03;" horiz-adv-x="1806" d="M147 976l20 118h190l18 118q25 157 116 238.5t245 81.5q45 0 90 -8l-29 -110h-51q-191 0 -223 -196l-20 -124h495l19 118q25 157 115.5 238.5t244.5 81.5q47 0 90 -8l-29 -110h-51q-191 0 -223 -196l-20 -124h624l-173 -1094h-146l154 976h-477l-155 -976h-146l155 976 h-495l-155 -976h-146l155 976h-192zM1655 1378q0 10 4 44q10 61 33 85.5t73 24.5q41 0 58 -15t17 -51q0 -2 -5 -44q-9 -61 -31 -84.5t-74 -23.5q-41 0 -58 14.5t-17 49.5z" />
<glyph unicode="&#xfb04;" horiz-adv-x="1809" d="M147 976l19 118h191l18 118q25 157 116 238.5t245 81.5q45 0 90 -8l-29 -110h-52q-191 0 -223 -196l-19 -124h495l19 118q25 157 115.5 238.5t244.5 81.5q197 0 449 -15l-193 -1223q-8 -53 -8 -92q0 -103 50 -185l-135 -66q-65 93 -65 221q0 43 10 111l179 1131h-277 q-194 0 -224 -196l-19 -124h241l-18 -118h-242l-154 -976h-146l154 976h-495l-155 -976h-145l155 976h-192z" />
<glyph horiz-adv-x="2048" />
<glyph horiz-adv-x="2048" />
<glyph unicode="&#xd;" horiz-adv-x="2048" />
<glyph unicode=" "  horiz-adv-x="583" />
<glyph unicode="&#x09;" horiz-adv-x="583" />
<glyph unicode="&#xa0;" horiz-adv-x="583" />
<glyph unicode="!" horiz-adv-x="479" d="M106 48q0 22 4 45q10 61 32.5 85.5t72.5 24.5q41 0 58 -15t17 -50q0 -11 -4 -45q-10 -61 -32 -84.5t-73 -23.5q-41 0 -58 14t-17 49zM186 417l135 1015h177l-185 -1015h-127z" />
<glyph unicode="&#x22;" horiz-adv-x="689" d="M202 966l71 551h149l-104 -551h-116zM481 966l71 551h148l-103 -551h-116z" />
<glyph unicode="#" horiz-adv-x="1134" d="M96 431l20 118h213l98 336h-206l19 118h222q8 28 60.5 205t65.5 224h119l-125 -429h268q8 28 60.5 205t65.5 224h120l-126 -429h180l-18 -118h-197l-97 -336h185l-18 -118h-203l-127 -431h-120l128 431h-269l-127 -431h-120l127 431h-198zM449 549h269l97 336h-268z" />
<glyph unicode="$" horiz-adv-x="1000" d="M35 18l36 125q159 -26 322 -26q79 0 137 10.5t109.5 37.5t83.5 78t44 126q4 24 4 49q0 48 -17 83.5t-56 62t-79.5 43.5t-109.5 39q-57 18 -95.5 33t-79.5 35t-66.5 41.5t-47 50.5t-31 65.5t-9.5 81.5q0 40 7 81q28 180 133.5 265.5t292.5 100.5l31 193h115l-30 -190 q161 -3 320 -31l-33 -123q-150 24 -268 24q-66 0 -116 -4t-103 -17.5t-89.5 -36t-63.5 -62t-35 -93.5q-6 -38 -6 -68q0 -37 11 -64.5t28.5 -47t55.5 -38t74.5 -32t103.5 -33.5q76 -23 130 -49t99.5 -63.5t68.5 -90.5t23 -122q0 -36 -6 -76q-29 -182 -136 -274t-294 -111 l-31 -196h-115l30 190q-187 0 -342 33z" />
<glyph unicode="%" horiz-adv-x="1649" d="M186 834q0 76 17 184q14 90 31.5 153t44.5 116.5t65 85t92.5 49t127.5 17.5q134 0 190 -57.5t56 -181.5q0 -75 -17 -182q-18 -113 -41.5 -186.5t-64.5 -129.5t-103.5 -81t-152.5 -25q-134 0 -189.5 57.5t-55.5 180.5zM287 -29l1059 1490h122l-1061 -1490h-120zM293 840 q0 -76 33 -114t116 -38q52 0 90.5 16.5t62.5 42t42 72t27 88.5t20 111q19 127 19 176q0 77 -33.5 115.5t-116.5 38.5q-44 0 -77.5 -10t-57.5 -33t-40 -48t-28.5 -67.5t-20 -78.5t-16.5 -93q-20 -124 -20 -178zM946 230q0 69 18 184q18 113 41.5 186.5t64 129.5t103 81 t152.5 25q134 0 189.5 -57.5t55.5 -181.5q0 -76 -17 -183q-18 -113 -41.5 -186.5t-64 -129t-103 -80.5t-153.5 -25q-134 0 -189.5 57t-55.5 180zM1053 237q0 -76 33.5 -114.5t116.5 -38.5q52 0 90.5 16.5t62 41.5t41.5 72t27 89t20 111q19 127 19 176q0 77 -33.5 116 t-116.5 39q-44 0 -77.5 -10t-57.5 -33t-40 -48t-28.5 -68t-20 -78.5t-16.5 -93.5q-20 -124 -20 -177z" />
<glyph unicode="&#x26;" horiz-adv-x="1331" d="M90 289q0 51 8 96q12 75 45.5 136.5t87.5 109.5t112.5 83.5t135.5 70.5q-35 53 -54 85.5t-38.5 89t-19.5 110.5q0 24 5 54q26 168 135 245t270 77q62 0 114 -13t94 -40.5t66 -75t24 -111.5q0 -34 -5 -62q-12 -75 -47.5 -136t-94 -107.5t-116 -79t-137.5 -66.5l280 -407 q102 131 149 327l138 -6q-70 -269 -209 -434l165 -235h-184l-89 131q-172 -146 -440 -146q-200 0 -297.5 75.5t-97.5 228.5zM242 316q0 -58 24.5 -100.5t67.5 -65t91 -33t104 -10.5q180 0 325 129l-312 455q-65 -33 -106.5 -59.5t-85 -65.5t-69 -88.5t-35.5 -111.5 q-4 -34 -4 -50zM509 1080q0 -44 19 -92.5t34.5 -72t49.5 -70.5q54 26 87 42.5t78 45t71 54t48.5 61t28.5 75.5q4 27 4 53q0 150 -178 150q-92 0 -157 -50.5t-82 -157.5q-3 -20 -3 -38z" />
<glyph unicode="'" horiz-adv-x="411" d="M202 966l71 551h149l-104 -551h-116z" />
<glyph unicode="(" horiz-adv-x="597" d="M133 250q0 148 27 320q98 623 459 923l75 -74q-290 -253 -384 -849q-28 -175 -28 -332q0 -346 143 -518l-98 -73q-194 218 -194 603z" />
<glyph unicode=")" horiz-adv-x="597" d="M-7 -280q86 75 155 181.5t113.5 225t71.5 225t45 218.5q28 175 28 331q0 345 -144 518l99 74q194 -220 194 -604q0 -141 -28 -319q-98 -623 -459 -923z" />
<glyph unicode="*" horiz-adv-x="938" d="M156 1030l17 109h296l-106 261l106 56l104 -258l189 258l85 -56l-190 -261h297l-17 -109h-298l107 -263l-103 -54l-107 256l-186 -257l-87 56l190 262h-297z" />
<glyph unicode="+" horiz-adv-x="1169" d="M134 533l22 139h417l67 427h140l-67 -427h418l-22 -139h-418l-68 -430h-141l69 430h-417z" />
<glyph unicode="," horiz-adv-x="452" d="M14 -269l215 514h172l-261 -514h-126z" />
<glyph unicode="-" horiz-adv-x="801" d="M176 479l21 130h515l-21 -130h-515z" />
<glyph unicode="." horiz-adv-x="441" d="M135 48q0 21 4 45q9 61 32.5 85.5t73.5 24.5q40 0 57 -15.5t17 -51.5q0 -9 -4 -43q-10 -61 -32 -84.5t-73 -23.5q-41 0 -58 14.5t-17 48.5z" />
<glyph unicode="/" horiz-adv-x="837" d="M-20 -165l829 1647h139l-831 -1647h-137z" />
<glyph unicode="0" horiz-adv-x="1251" d="M163 382q0 118 31 312q24 152 52.5 258t74 196t108.5 143.5t153 82.5t210 29q222 0 314 -96t92 -302q0 -117 -31 -311q-24 -151 -53 -257.5t-74.5 -196.5t-108.5 -143.5t-153 -82.5t-211 -29q-221 0 -312.5 96t-91.5 301zM310 385q0 -135 60 -203t212 -68q53 0 98 9 t80.5 24t65.5 41.5t52 53.5t41 69t32.5 79.5t26 92t21 100.5t18.5 111q34 221 34 308q0 137 -60 205t-213 68q-53 0 -98 -9t-80.5 -24t-65 -41.5t-51.5 -53.5t-41 -69t-32 -79.5t-25.5 -92.5t-20.5 -100.5t-19 -111.5q-35 -228 -35 -309z" />
<glyph unicode="1" horiz-adv-x="701" d="M170 1150l13 127q208 33 392 112h121l-220 -1389h-150l194 1225q-173 -49 -350 -75z" />
<glyph unicode="2" horiz-adv-x="1078" d="M29 0q37 113 63 183t60.5 143.5t68.5 119t83 91.5t108 79.5t139 65.5q169 69 266.5 151.5t117.5 206.5q5 33 5 54q0 99 -81 138t-270 39q-143 0 -328 -29l4 121q222 40 415 40q416 0 416 -267q0 -37 -5 -66q-29 -184 -146.5 -300.5t-326.5 -198.5q-95 -37 -159 -78.5 t-107.5 -96.5t-70.5 -113.5t-53 -147.5h714l-22 -135h-891z" />
<glyph unicode="3" horiz-adv-x="1083" d="M20 23l37 125q207 -29 315 -29q211 0 314 59t128 218q4 24 4 52q0 89 -51.5 141t-142.5 62q-93 10 -226 10q-9 0 -27.5 -0.5t-27.5 -0.5l19 119q144 3 286 23q105 15 169 78.5t79 159.5q5 37 5 59q0 47 -16.5 79.5t-41.5 50.5t-69.5 28.5t-87 13t-106.5 2.5 q-134 0 -337 -29l3 122q204 37 383 37q61 0 111.5 -4.5t101.5 -14.5t89 -29.5t68.5 -48t46 -70.5t15.5 -96q0 -31 -6 -67q-40 -255 -269 -342q83 -26 137 -92t54 -170q0 -35 -5 -63q-19 -119 -67 -202t-124 -130.5t-169.5 -68t-217.5 -20.5q-187 0 -374 38z" />
<glyph unicode="4" horiz-adv-x="1188" d="M73 412q0 14 1 22q11 61 99 155l661 720q87 94 163 94q32 0 51 -19.5t19 -57.5q0 -18 -2 -28l-133 -838h186l-19 -124h-187l-53 -336h-149l53 336h-581q-109 0 -109 76zM224 460h559l118 743z" />
<glyph unicode="5" horiz-adv-x="1096" d="M48 24l37 125q167 -29 321 -29q111 0 183.5 13.5t128 49.5t86.5 98.5t47 160.5q5 33 5 55q0 55 -22 94t-57 62t-92 36t-114 17t-137 4q-146 0 -250 -6l155 685h781l-22 -135h-648l-95 -422q77 5 144 5q99 0 169.5 -6t139.5 -25.5t111 -52.5t68 -90t26 -136q0 -47 -9 -103 q-36 -232 -176.5 -335.5t-388.5 -103.5q-205 0 -391 39z" />
<glyph unicode="6" horiz-adv-x="1211" d="M144 352q0 86 19 203q27 168 58.5 287.5t80.5 218.5t112.5 161t156.5 104t209.5 59.5t273.5 17.5q72 0 113 -1l-7 -126q-26 -1 -79 -2q-218 -6 -320 -28q-221 -48 -320 -218q-49 -84 -72 -203q220 28 347 28q102 0 174.5 -14t130 -47.5t85.5 -94.5t28 -151 q0 -49 -11 -118q-21 -130 -70 -218.5t-126 -136.5t-167.5 -68t-212.5 -20q-219 0 -311 92.5t-92 274.5zM294 376q0 -58 12.5 -103t41.5 -82t83 -57t131 -20q202 0 293.5 71.5t118.5 245.5q7 45 7 86q0 65 -20.5 107.5t-64.5 65t-99.5 31t-139.5 8.5q-105 0 -317 -30 q-13 -55 -32 -174q-14 -89 -14 -149z" />
<glyph unicode="7" horiz-adv-x="1014" d="M163 0l785 1255h-754l21 134h803q55 0 79 -21t19 -59q-5 -30 -26 -64l-757 -1245h-170z" />
<glyph unicode="8" horiz-adv-x="1217" d="M116 288q0 42 7 84q22 139 95 219t196 130q-87 44 -126.5 106t-39.5 151q0 45 7 88q27 172 163.5 254.5t356.5 82.5q128 0 220 -27.5t146.5 -90.5t54.5 -158q0 -33 -5 -61q-20 -127 -79 -206.5t-192 -137.5q90 -41 139 -106t49 -168q0 -36 -6 -78q-15 -92 -52 -161 t-86.5 -111t-118.5 -68t-139 -35.5t-155 -9.5q-99 0 -175.5 15.5t-136.5 49.5t-91.5 94t-31.5 144zM267 318q0 -60 23 -102t66 -64t95 -31t120 -9q77 0 136 11t113 38.5t88 81.5t47 134q5 35 5 58q0 108 -81 157.5t-254 62.5q-153 -19 -242.5 -81.5t-110.5 -196.5 q-5 -35 -5 -59zM391 992q0 -98 79 -149t239 -62q145 24 230 81t104 176q5 32 5 52q0 56 -22.5 94.5t-65 58.5t-91.5 28t-114 8q-71 0 -125.5 -9.5t-106 -34.5t-84 -74.5t-44.5 -122.5q-4 -34 -4 -46z" />
<glyph unicode="9" horiz-adv-x="1208" d="M147 -13l7 126q26 1 79 2q218 6 320 28q222 48 321 218q49 84 72 203q-222 -28 -348 -28q-102 0 -174.5 14t-129.5 47.5t-85 94.5t-28 151q0 55 10 118q17 105 53 182.5t85.5 126.5t119.5 79.5t145.5 42t172.5 11.5q219 0 311 -92t92 -274q0 -92 -18 -203 q-27 -168 -59 -288t-81 -219t-112.5 -160.5t-156 -104t-209.5 -60t-274 -17.5q-31 0 -113 2zM334 871q0 -124 77.5 -167.5t245.5 -43.5q106 0 318 30q8 34 31 173q15 96 15 150q0 58 -12.5 103t-41.5 82t-83.5 56.5t-131.5 19.5q-202 0 -293 -71t-118 -245q-7 -45 -7 -87z " />
<glyph unicode=":" horiz-adv-x="482" d="M125 49q0 1 5 44q10 61 32.5 85.5t72.5 24.5q41 0 58 -15t17 -50q0 -2 -5 -45q-9 -61 -31 -84.5t-74 -23.5q-41 0 -58 14.5t-17 49.5zM248 822q0 17 5 45q10 61 32.5 85.5t72.5 24.5q40 0 57.5 -15t17.5 -51q0 -1 -5 -44q-9 -61 -31 -84.5t-74 -23.5q-41 0 -58 14t-17 49 z" />
<glyph unicode=";" horiz-adv-x="508" d="M7 -269l215 514h172l-261 -514h-126zM317 822q0 11 4 45q10 61 32.5 85.5t72.5 24.5q40 0 57.5 -15.5t17.5 -50.5q0 -10 -4 -44q-9 -61 -31 -84.5t-74 -23.5q-41 0 -58 14t-17 49z" />
<glyph unicode="&#x3c;" horiz-adv-x="1196" d="M128 534l21 135l1033 457l-24 -150l-851 -374l733 -375l-24 -151z" />
<glyph unicode="=" horiz-adv-x="1284" d="M157 323l22 137h976l-23 -137h-975zM224 743l22 138h976l-23 -138h-975z" />
<glyph unicode="&#x3e;" horiz-adv-x="1197" d="M110 76l24 151l852 375l-733 374l24 150l887 -457l-20 -135z" />
<glyph unicode="?" horiz-adv-x="1008" d="M225 1408q185 38 373 38q87 0 149 -6t122 -24t96 -50t58 -85.5t22 -127.5q0 -52 -10 -112q-14 -91 -44.5 -157t-68.5 -101t-84 -59t-91 -32.5t-88.5 -20t-78.5 -23.5t-60 -40.5t-33 -72.5l-21 -118h-129l17 124q1 7 3.5 27t3.5 25q10 63 40.5 102t72.5 55.5t91 26 t98.5 21.5t92 34.5t75.5 72.5t45 128q9 51 9 91q0 109 -75.5 148.5t-270.5 39.5q-137 0 -308 -30zM258 48q0 21 4 45q10 61 32.5 85.5t72.5 24.5q40 0 57.5 -15t17.5 -51q0 -10 -4 -44q-10 -61 -32 -84.5t-74 -23.5q-41 0 -57.5 14.5t-16.5 48.5z" />
<glyph unicode="@" horiz-adv-x="1853" d="M146 368q0 82 15 179q31 197 108 338.5t199 227.5t279.5 125.5t361.5 39.5q324 0 324 -254q0 -34 -6 -73l-71 -452q-15 -94 -36 -187q-184 -88 -411 -88q-177 0 -260 60.5t-83 184.5q0 29 7 78q21 134 101.5 217t217.5 110q108 22 384 31q8 45 8 90q0 87 -46.5 122 t-157.5 35q-131 0 -236 -18.5t-196.5 -61.5t-158 -112t-113 -172.5t-68.5 -240.5q-14 -89 -14 -157q0 -123 39 -210.5t116 -139t181.5 -74.5t245.5 -23q162 0 286 30.5t223 100t162 187.5t90 286q17 112 17 186q0 3 -0.5 11t-0.5 11l147 41q2 -30 2 -45q0 -95 -18 -204 q-60 -380 -292.5 -555t-634.5 -175q-353 0 -532 133t-179 418zM714 499q0 -86 56.5 -120t172.5 -34q120 0 247 50q20 96 32 172l36 226q-246 -5 -331 -27q-93 -22 -143.5 -72t-65.5 -143q-4 -25 -4 -52z" />
<glyph unicode="A" d="M-3 0l698 1339q55 107 140 107q84 0 106 -107l268 -1339h-164l-80 412h-600l-210 -412h-158zM430 538h511l-140 727z" />
<glyph unicode="B" horiz-adv-x="1287" d="M116 20l220 1394q203 32 433 32q67 0 122 -4t114 -15t103.5 -32t80.5 -51.5t55 -78t19 -107.5q0 -39 -5 -70q-44 -279 -264 -356q86 -30 133 -93t47 -177q0 -48 -9 -107q-12 -76 -40.5 -135.5t-72.5 -99t-95.5 -67t-117.5 -42t-131 -20.5t-144 -6q-243 0 -448 35z M287 133q148 -18 289 -18q79 0 134.5 5.5t111.5 22t92 46t63.5 80t38.5 121.5q5 30 5 65q0 54 -18.5 93t-49 63t-79 37.5t-99 18.5t-118.5 5h-285zM392 793h284q75 0 130.5 6t108.5 23t88.5 46.5t61.5 77.5t37 115q5 35 5 58q0 51 -18.5 87.5t-48 58t-78 33.5t-97 15.5 t-116.5 3.5q-133 0 -277 -18z" />
<glyph unicode="C" horiz-adv-x="1062" d="M159 420q0 128 27 296q25 159 58 272t85 204t125 144.5t174 81.5t237 28q169 0 315 -31l-35 -126q-142 23 -241 23q-64 0 -118.5 -6t-99.5 -19.5t-81.5 -30t-66.5 -43.5t-53 -54.5t-42 -67t-32.5 -76.5t-26 -89.5t-21.5 -99t-19 -110.5q-28 -173 -28 -275 q0 -83 18.5 -140t63.5 -99t123 -62t194 -20q99 0 249 22l-5 -124q-160 -33 -325 -33q-259 0 -367 103t-108 332z" />
<glyph unicode="D" horiz-adv-x="1345" d="M116 19l221 1395q203 32 431 32q148 0 249.5 -26.5t161.5 -82.5t85.5 -134.5t25.5 -190.5q0 -117 -29 -296q-17 -111 -37 -194.5t-49.5 -163t-68 -135.5t-92 -103t-122 -75.5t-157 -44t-199.5 -15.5q-226 0 -420 34zM288 136q137 -19 228 -19q104 0 185.5 17t137.5 40.5 t99.5 73t68 88t45.5 114.5t30 124t24 142q31 194 31 275q0 62 -11.5 109t-40.5 88.5t-77 68.5t-124 42t-178 15q-93 0 -233 -17z" />
<glyph unicode="E" horiz-adv-x="1081" d="M149 235q0 35 6 77l128 806q10 64 32 113.5t48.5 82.5t67 56.5t77 35.5t90.5 19t94.5 8.5t101.5 1.5q163 0 345 -8l-19 -124h-352q-101 0 -158.5 -10t-96.5 -42.5t-57 -82t-32 -139.5l-38 -235h624l-21 -129h-623l-42 -264q-12 -81 -12 -120q0 -91 56.5 -122t213.5 -31 h351l-19 -125q-157 -7 -347 -7q-55 0 -91.5 1t-85 6t-79.5 14.5t-64.5 27t-53 42.5t-32 62.5t-12.5 85.5z" />
<glyph unicode="F" horiz-adv-x="1051" d="M109 0l177 1118q10 64 32 113.5t48.5 82.5t67.5 56.5t77 35.5t90.5 19t95 8.5t101.5 1.5q214 0 344 -8l-19 -124h-352q-101 0 -158.5 -10t-97 -42.5t-57.5 -82t-32 -139.5l-36 -235h623l-21 -129h-623l-105 -665h-155z" />
<glyph unicode="G" horiz-adv-x="1278" d="M162 420q0 122 28 296q25 161 58.5 274.5t85 204t124.5 143.5t173.5 80.5t236.5 27.5q239 0 407 -32l-34 -127q-174 24 -334 24q-91 0 -163 -13.5t-125 -36t-93.5 -63.5t-67 -84.5t-48 -111.5t-34.5 -130.5t-28 -155.5q-29 -181 -29 -277q0 -82 18.5 -138.5t63.5 -98.5 t123 -62t194 -20q56 0 98 5.5t70 17.5t46 25.5t29 36t16 41.5t10 50l52 328h-255l20 127h408l-83 -529q-9 -54 -29.5 -94.5t-56.5 -66t-74 -41.5t-97 -23t-109 -9.5t-126 -2.5q-258 0 -366.5 103t-108.5 332z" />
<glyph unicode="H" horiz-adv-x="1382" d="M115 0l227 1432h154l-100 -633h729l100 633h156l-227 -1432h-156l106 667h-729l-105 -667h-155z" />
<glyph unicode="I" horiz-adv-x="495" d="M113 0l227 1432h155l-226 -1432h-156z" />
<glyph unicode="J" horiz-adv-x="783" d="M-22 18l32 122q72 -23 167 -23q44 0 80.5 7.5t72 28t62.5 53t48.5 85.5t32.5 124l161 1017h156l-156 -980q-20 -128 -52.5 -213.5t-87 -144t-133.5 -84t-192 -25.5q-106 0 -191 33z" />
<glyph unicode="K" horiz-adv-x="1190" d="M112 0l227 1432h154l-105 -664l716 664h189l-753 -690l542 -742h-198l-506 703l-111 -703h-155z" />
<glyph unicode="L" horiz-adv-x="972" d="M152 235q0 28 7 77l177 1120h155l-163 -1031q-12 -79 -12 -118q0 -92 57 -123.5t213 -31.5h325l-20 -126q-169 -6 -321 -6q-55 0 -91.5 1t-85 6t-79.5 14.5t-64.5 27t-53 42.5t-32 62.5t-12.5 85.5z" />
<glyph unicode="M" horiz-adv-x="1706" d="M84 0l291 1336q24 110 116 110q72 0 101 -99l266 -946l571 944q61 101 132 101q84 0 84 -86q0 -15 -1 -24l-136 -1336h-152l123 1196h-1l-551 -924q-25 -40 -48 -59t-54 -19q-58 0 -79 78l-257 926l-259 -1198h-146z" />
<glyph unicode="N" horiz-adv-x="1409" d="M115 0l211 1334q9 57 39 84.5t74 27.5q40 0 68.5 -24.5t52.5 -77.5l512 -1136l193 1224h143l-212 -1334q-9 -57 -38.5 -85t-74.5 -28q-41 0 -69 24.5t-52 78.5l-510 1137l-195 -1225h-142z" />
<glyph unicode="O" horiz-adv-x="1360" d="M166 417q0 122 28 299q25 161 59.5 276t86 204.5t123 143t167 80t223.5 26.5q246 0 350.5 -101.5t104.5 -330.5q0 -121 -28 -298q-25 -161 -59.5 -276t-86 -204.5t-123 -143t-167.5 -80.5t-223 -27q-245 0 -350 101.5t-105 330.5zM318 412q0 -71 15 -122.5t50 -91.5 t98.5 -59.5t155.5 -19.5q61 0 112.5 9.5t92 25t74 43t58.5 55.5t46 71.5t35 82t27.5 94.5t22 102.5t18.5 113.5q33 207 33 302q0 72 -14.5 123.5t-50 91.5t-98.5 60t-155 20q-79 0 -142 -15.5t-108 -40t-81 -70t-58.5 -88.5t-42 -112.5t-30.5 -126t-25 -144.5 q-33 -209 -33 -304z" />
<glyph unicode="P" horiz-adv-x="1222" d="M111 0l224 1413q200 33 434 33q88 0 154.5 -7t132 -28t107 -56t67 -94t25.5 -140q0 -47 -9 -106q-17 -106 -55 -184t-90 -127t-126 -78t-151.5 -40t-177.5 -11q-117 0 -287 10l-94 -585h-154zM380 717q119 -13 271 -13q201 0 306.5 66.5t134.5 244.5q7 51 7 80 q0 118 -80 170t-263 52q-146 0 -284 -19z" />
<glyph unicode="Q" horiz-adv-x="1360" d="M177 417q0 122 28 299q32 201 78 334t123 224.5t188 131.5t270 40q245 0 350 -101t105 -330q0 -115 -29 -299q-28 -173 -65.5 -294.5t-96 -212t-140.5 -141.5t-195 -70q32 -72 89.5 -118.5t161.5 -100.5l-121 -79q-6 3 -35.5 18.5t-39.5 21.5t-37 21.5t-39 26t-34.5 28.5 t-35 34t-27.5 37.5t-25.5 46t-17.5 51.5q-246 0 -350.5 101.5t-104.5 330.5zM328 413q0 -71 14.5 -122.5t50 -91.5t99 -60t155.5 -20q78 0 141 15.5t108 40.5t81 69.5t59 88.5t42.5 112.5t30.5 126t25 144.5q33 207 33 302q0 72 -14.5 123.5t-50 91.5t-98.5 60t-155 20 q-78 0 -141 -15.5t-108.5 -40.5t-81.5 -69.5t-59 -88t-42.5 -112.5t-30.5 -126.5t-25 -144.5q-33 -209 -33 -303z" />
<glyph unicode="R" horiz-adv-x="1259" d="M111 0l224 1413q200 33 434 33q61 0 111 -3.5t101.5 -12.5t91 -24t75 -39.5t58.5 -57.5t36 -79.5t13 -104.5q0 -54 -8 -103q-31 -198 -135.5 -296.5t-275.5 -125.5l247 -600h-180l-232 587h-22q-118 0 -288 10l-96 -597h-154zM382 730q120 -13 271 -13q98 0 169 14 t129 47.5t93 94t49 149.5q7 49 7 78q0 117 -80 167.5t-264 50.5q-134 0 -285 -19z" />
<glyph unicode="S" horiz-adv-x="1051" d="M49 19l35 130q178 -28 333 -28q64 0 114.5 6.5t98 24t81 46t57.5 75t34 108.5q4 24 4 52q0 40 -13.5 72t-34 54.5t-58 42.5t-73 33.5t-91.5 31.5q-71 23 -116.5 40.5t-92 44.5t-72.5 57t-42 73.5t-16 99.5q0 41 7 83q32 208 165 294.5t374 86.5q178 0 350 -32l-34 -127 q-162 25 -276 25q-85 0 -148 -8t-124.5 -30t-99 -67.5t-48.5 -113.5q-6 -39 -6 -70q0 -38 11.5 -66.5t29.5 -49t57.5 -39.5t77.5 -32.5t107 -34.5q78 -24 134 -50.5t102.5 -65.5t70 -93.5t23.5 -125.5q0 -29 -7 -78q-34 -215 -173 -309t-388 -94q-189 0 -353 34z" />
<glyph unicode="T" horiz-adv-x="1012" d="M194 1301l20 131h923l-21 -131h-384l-205 -1301h-156l206 1301h-383z" />
<glyph unicode="U" horiz-adv-x="1339" d="M166 332q0 56 11 131l153 969h154l-156 -985q-7 -45 -7 -89q0 -122 73.5 -180t234.5 -58q188 0 283 79t122 248l155 985h154l-153 -969q-22 -139 -72 -234t-128 -147.5t-169.5 -74.5t-213.5 -22q-84 0 -149 10t-121 34t-93 63t-57.5 99.5t-20.5 140.5z" />
<glyph unicode="V" horiz-adv-x="1255" d="M224 1432h164l214 -1243l612 1243h157l-669 -1339q-28 -57 -60 -82.5t-74 -25.5t-66.5 26t-34.5 82z" />
<glyph unicode="W" horiz-adv-x="1824" d="M254 1432h157l76 -1235l455 966q26 56 55.5 81t69.5 25t61.5 -25.5t29.5 -81.5l139 -965l463 1235h151l-514 -1336q-43 -111 -129 -111q-42 0 -65 27t-31 84l-142 967l-455 -967q-27 -57 -58.5 -84t-72.5 -27q-85 0 -94 111z" />
<glyph unicode="X" horiz-adv-x="1222" d="M15 0l566 730l-322 702h178l254 -566l433 566h168l-538 -696l338 -736h-179l-271 598l-456 -598h-171z" />
<glyph unicode="Y" horiz-adv-x="1135" d="M210 1432h168l246 -715l479 715h162l-590 -875l-89 -557h-155l88 557z" />
<glyph unicode="Z" horiz-adv-x="1081" d="M26 63q6 35 40 79l884 1158h-682l21 132h784q48 0 69 -16q17 -13 17 -36q0 -5 -1 -11q-5 -34 -40 -79l-883 -1158h722l-21 -132h-825q-47 0 -69 16q-17 13 -17 36q0 5 1 11z" />
<glyph unicode="[" horiz-adv-x="595" d="M76 -334l287 1814h350l-18 -120h-213l-249 -1573h211l-19 -121h-349z" />
<glyph unicode="\" horiz-adv-x="837" d="M255 1482h138l308 -1647h-138z" />
<glyph unicode="]" horiz-adv-x="595" d="M-26 -334l19 121h211l249 1573h-212l18 120h352l-287 -1814h-350z" />
<glyph unicode="^" horiz-adv-x="996" d="M116 677l450 755h150l211 -755h-141l-170 597l-360 -597h-140z" />
<glyph unicode="_" horiz-adv-x="1020" d="M-6 -289l15 103h1018l-16 -103h-1017z" />
<glyph unicode="`" horiz-adv-x="458" d="M163 1464h177l130 -293h-118z" />
<glyph unicode="a" horiz-adv-x="1119" d="M90 232q0 29 7 80q47 298 323 339q135 20 464 32l8 49q7 41 7 80q0 92 -58 132t-201 40q-150 0 -363 -31l5 118q237 38 404 38q65 0 117 -6.5t99.5 -23.5t79 -45t50 -73.5t18.5 -105.5q0 -29 -7 -78l-82 -517q-15 -99 -36 -187q-187 -88 -462 -88q-193 0 -283 57.5 t-90 189.5zM238 259q0 -87 60.5 -119.5t199.5 -32.5q168 0 298 49q20 96 32 172l38 243q-288 -5 -411 -29q-98 -20 -146.5 -68t-65.5 -158q-5 -35 -5 -57z" />
<glyph unicode="b" horiz-adv-x="1158" d="M115 73q9 93 24 187l199 1257h146l-71 -448q158 40 303 40q199 0 289.5 -81.5t90.5 -273.5q0 -84 -19 -207q-26 -160 -70 -267.5t-115 -173t-164 -93.5t-224 -28q-238 0 -389 88zM273 158q95 -49 251 -49q193 0 281 103t124 335q19 116 19 191q0 132 -66.5 190t-232.5 58 q-125 0 -256 -43l-97 -613q-17 -112 -23 -172z" />
<glyph unicode="c" horiz-adv-x="902" d="M149 350q0 92 19 209q18 114 42.5 195.5t66 152t100 113t145 66t201.5 23.5q125 0 235 -31l-30 -115q-99 19 -176 19q-83 0 -144 -9.5t-106 -33.5t-74 -54t-50.5 -82.5t-34.5 -106.5t-26 -137q-21 -135 -21 -204q0 -61 14.5 -104t49.5 -75t97.5 -47t155.5 -15 q57 0 184 24l-5 -121q-158 -32 -286 -32q-101 0 -172 26.5t-110.5 77t-57 114t-17.5 147.5z" />
<glyph unicode="d" horiz-adv-x="1158" d="M114 348q0 93 17 199q49 310 173 436t367 126q145 0 289 -40l72 448h146l-200 -1257q-14 -91 -35 -187q-179 -88 -416 -88q-216 0 -314.5 82t-98.5 281zM264 377q0 -138 65 -203t217 -65q154 0 266 49q20 96 32 172l97 613q-118 43 -244 43q-74 0 -130.5 -10.5t-99 -35.5 t-72 -58t-51.5 -85.5t-36.5 -110t-27.5 -139.5q-16 -102 -16 -170z" />
<glyph unicode="e" horiz-adv-x="1165" d="M149 362q0 79 16 185q48 303 173.5 432.5t385.5 129.5q213 0 304.5 -86.5t91.5 -253.5q0 -75 -13 -153q-10 -60 -19 -104q-93 -16 -257 -31t-279 -20l-255 -11q-3 -41 -3 -75q0 -69 14 -115.5t47.5 -81.5t93.5 -51t149 -16q152 0 383 31l-5 -120q-245 -37 -456 -37 q-200 0 -285.5 98t-85.5 279zM311 563l286 14q187 8 359 30q4 16 15 77q7 49 7 80q0 109 -64 166t-208 57q-99 0 -167.5 -25.5t-113.5 -81.5t-70.5 -130.5t-43.5 -186.5z" />
<glyph unicode="f" horiz-adv-x="679" d="M147 976l19 118h191l18 118q25 157 116 238.5t245 81.5q47 0 90 -8l-29 -110h-51q-192 0 -224 -196l-19 -124h241l-18 -118h-242l-155 -976h-145l154 976h-191z" />
<glyph unicode="g" horiz-adv-x="1166" d="M102 -379l31 119q205 -33 360 -33q115 0 183.5 27t101 80t47.5 146l14 90q-157 -40 -301 -40q-200 0 -291.5 80t-91.5 271q0 85 18 198q25 156 69.5 261t115.5 169.5t164 92t223 27.5q238 0 389 -88q-9 -93 -24 -187l-146 -919q-16 -99 -57 -166.5t-105.5 -103 t-135.5 -49.5t-163 -14q-169 0 -401 39zM304 378q0 -131 66 -188t233 -57q126 0 257 43l93 588q13 82 23 172q-99 50 -251 50q-190 0 -279.5 -101.5t-124.5 -325.5q-17 -107 -17 -181z" />
<glyph unicode="h" horiz-adv-x="1167" d="M99 0l240 1517h146l-72 -453q162 44 319 45q107 0 179.5 -17.5t112.5 -52.5t56.5 -80t16.5 -107q0 -52 -12 -134l-114 -718h-146l109 687q11 69 11 115q0 97 -59.5 139t-216.5 42q-140 0 -276 -48l-148 -935h-146z" />
<glyph unicode="i" horiz-adv-x="447" d="M90 0l173 1094h147l-173 -1094h-147zM296 1378q0 10 4 44q10 61 33 85.5t73 24.5q41 0 58 -15t17 -51q0 -2 -5 -44q-9 -61 -31 -84.5t-74 -23.5q-41 0 -58 14.5t-17 49.5z" />
<glyph unicode="j" horiz-adv-x="454" d="M-196 -417l29 114q42 3 72.5 9.5t65 23.5t58 43.5t43.5 72.5t30 109l181 1139h147l-176 -1105q-35 -218 -134 -312.5t-282 -94.5q-23 0 -34 1zM316 1378q0 10 4 44q10 62 32.5 86t72.5 24q41 0 58.5 -15t17.5 -51q0 -2 -5 -44q-10 -61 -32 -84.5t-73 -23.5 q-41 0 -58 14.5t-17 49.5z" />
<glyph unicode="k" horiz-adv-x="1015" d="M99 0l240 1517h146l-147 -927l546 504h177l-587 -534l445 -560h-191l-402 516l-81 -516h-146z" />
<glyph unicode="l" horiz-adv-x="448" d="M114 172q0 43 10 111l196 1234h145l-193 -1223q-8 -53 -8 -92q0 -103 50 -185l-135 -66q-65 93 -65 221z" />
<glyph unicode="m" horiz-adv-x="1807" d="M113 0l132 831q14 91 35 187q97 39 222.5 65t233.5 26q188 0 262 -88q193 88 409 88q92 0 156 -19.5t98.5 -56.5t49 -82.5t14.5 -106.5q0 -52 -12 -133l-112 -711h-147l109 685q10 61 10 113q0 98 -52 141.5t-180 43.5q-64 0 -143.5 -18.5t-149.5 -53.5q6 -33 6 -69 q0 -54 -12 -131l-113 -711h-146l109 685q10 60 10 112q0 98 -52 142t-180 44q-52 0 -130 -15.5t-130 -37.5q-23 -122 -31 -171l-120 -759h-146z" />
<glyph unicode="n" horiz-adv-x="1205" d="M112 0l132 831q14 91 35 187q219 91 499 91q104 0 174.5 -18.5t109 -54.5t54 -80t15.5 -105q0 -54 -14 -140l-112 -711h-146l108 684q12 77 12 118q0 97 -58.5 139.5t-211.5 42.5q-69 0 -158 -15.5t-141 -38.5q-17 -81 -31 -171l-121 -759h-146z" />
<glyph unicode="o" horiz-adv-x="1194" d="M151 343q0 89 18 204q49 308 175 435t385 127q211 0 305.5 -84.5t94.5 -276.5q0 -87 -18 -201q-48 -304 -175 -433t-385 -129q-212 0 -306 83t-94 275zM298 352q0 -137 61 -189t206 -52q185 0 272.5 94t126.5 342q18 113 18 192q0 135 -61 189.5t-206 54.5 q-94 0 -157 -19t-112 -69t-79 -133.5t-51 -214.5q-18 -115 -18 -195z" />
<glyph unicode="p" horiz-adv-x="1159" d="M65 -403l196 1237q15 99 36 187q179 88 416 88q216 0 314.5 -82.5t98.5 -281.5q0 -85 -18 -198q-49 -310 -172.5 -436t-366.5 -126q-141 0 -289 41l-69 -429h-146zM299 152q118 -43 243 -43q75 0 131 10.5t99 35t72.5 57.5t51.5 85.5t36.5 110t27.5 139.5q16 102 16 171 q0 138 -65 203t-217 65q-151 0 -266 -50q-20 -96 -32 -172z" />
<glyph unicode="q" horiz-adv-x="1160" d="M146 340q0 90 18 207q26 160 70 267.5t114.5 173t164 93.5t224.5 28q238 0 389 -88q-9 -93 -24 -187l-196 -1237h-146l68 429q-162 -41 -303 -41q-199 0 -289 81t-90 274zM294 356q0 -132 66 -189.5t232 -57.5q125 0 256 43l97 612q17 112 23 172q-97 50 -250 50 q-99 0 -169 -26.5t-116.5 -83.5t-74.5 -135.5t-46 -193.5q-18 -109 -18 -191z" />
<glyph unicode="r" horiz-adv-x="703" d="M111 0l132 834q15 99 36 187q179 88 417 88q59 0 98 -5l-31 -126q-35 4 -88 4q-151 0 -266 -50q-20 -96 -32 -172l-120 -760h-146z" />
<glyph unicode="s" horiz-adv-x="948" d="M64 22l33 117q147 -26 272 -26q36 0 57 0.5t59 4t62 9.5t54.5 18.5t49.5 30t35 45.5t21 63q3 21 3 39q0 30 -10.5 53t-26 38.5t-46 30.5t-57.5 24.5t-75 24.5q-5 2 -8.5 3t-7.5 2q-128 42 -170 63q-110 58 -120 168q-1 13 -1 26q0 32 5 60q13 84 49 142t92.5 90.5 t123.5 46.5t152 14q178 0 344 -36l-33 -116q-150 27 -265 27q-32 0 -54.5 -0.5t-56 -4t-57.5 -9t-51 -17t-45 -27.5t-32 -40.5t-19 -55.5q-3 -21 -3 -37q0 -18 3 -33.5t11.5 -28.5t16 -23t23.5 -19.5t27 -15.5t33.5 -14.5t36 -13t41 -13t42.5 -13.5q78 -26 124 -46 t88.5 -50.5t61 -70.5t18.5 -96q0 -28 -6 -63q-14 -88 -54 -149.5t-103 -95.5t-136.5 -48.5t-165.5 -14.5q-174 0 -335 37z" />
<glyph unicode="t" horiz-adv-x="705" d="M152 976l18 118h196l45 285l151 24l-50 -309h239l-18 -118h-239l-109 -684q-6 -39 -6 -68q0 -69 36.5 -92.5t122.5 -23.5q29 0 59 3l-6 -114q-74 -12 -117 -12q-127 0 -186.5 49t-59.5 155q0 41 7 83l112 704h-195z" />
<glyph unicode="u" horiz-adv-x="1201" d="M155 243q0 53 14 140l113 711h146l-108 -684q-13 -87 -13 -123q0 -95 58 -135.5t212 -40.5q68 0 156 15t140 38q17 81 31 171l121 759h145l-132 -830q-12 -78 -34 -187q-223 -92 -496 -92q-104 0 -174.5 18.5t-109 54.5t-54 80t-15.5 105z" />
<glyph unicode="v" horiz-adv-x="1121" d="M195 1094h155l194 -931l494 931h149l-541 -1002q-57 -107 -132 -107q-41 0 -64.5 26t-35.5 81z" />
<glyph unicode="w" horiz-adv-x="1708" d="M216 1094h151l89 -930l401 740q29 54 56 79t63 25q38 0 58.5 -25.5t31.5 -78.5l154 -739l389 929h144l-432 -1001q-46 -108 -126 -108q-40 0 -61.5 26t-33.5 82l-156 722l-396 -722q-31 -56 -60 -82t-68 -26q-83 0 -95 108z" />
<glyph unicode="x" horiz-adv-x="1086" d="M35 0l470 569l-267 525h170l204 -408l331 408h161l-432 -521l293 -573h-173l-227 453l-367 -453h-163z" />
<glyph unicode="y" horiz-adv-x="1035" d="M201 1094h156l214 -822l400 822h148l-737 -1497h-148l239 480z" />
<glyph unicode="z" horiz-adv-x="1053" d="M44 50q3 27 33 60l779 863h-619l19 121h764q30 0 46 -14q12 -11 13 -27q0 -4 -1 -9q-3 -24 -33 -59l-778 -860h632l-20 -125h-778q-31 0 -46 14q-12 11 -12 27q0 4 1 9z" />
<glyph unicode="{" horiz-adv-x="602" d="M115 518l18 111q96 20 144.5 124t85.5 338q15 96 46 165t78 112t102 66.5t129 34.5l-4 -110q-98 -17 -148 -94.5t-71 -204.5l-18 -109q-8 -49 -16 -85.5t-24.5 -87t-36.5 -86.5t-53.5 -69t-74.5 -50q99 -52 99 -226q0 -60 -14 -152l-17 -108q-9 -55 -9 -105 q0 -170 134 -194l-30 -110q-121 20 -183 81t-62 189q0 41 10 108q26 162 26 259q0 92 -26 141t-85 62z" />
<glyph unicode="|" horiz-adv-x="487" d="M177 -403v1920h135v-1920h-135z" />
<glyph unicode="}" horiz-adv-x="602" d="M-25 -322l5 110q98 18 148 94.5t71 204.5l17 108q48 307 206 378q-102 47 -102 218q0 68 15 160l18 109q10 62 10 105q0 169 -134 194l29 110q121 -20 183 -81.5t62 -189.5q0 -48 -9 -107q-26 -164 -26 -260q0 -92 25.5 -140.5t84.5 -61.5l-17 -111 q-96 -21 -144.5 -124.5t-85.5 -337.5q-15 -97 -46.5 -166t-78.5 -111.5t-102.5 -65.5t-128.5 -35z" />
<glyph unicode="~" horiz-adv-x="1225" d="M148 499q38 151 121.5 232t183.5 81q62 0 115 -19t90 -46t70 -54t70.5 -46t76.5 -19q58 0 98.5 42.5t71.5 133.5h135q-38 -152 -120.5 -233t-183.5 -81q-61 0 -114.5 19t-90.5 46t-70.5 54t-71 46t-76.5 19q-58 0 -98.5 -42.5t-70.5 -132.5h-136z" />
<glyph unicode="&#xa1;" horiz-adv-x="459" d="M56 -351l186 1015h127l-136 -1015h-177zM264 944l5 43q10 62 32 85.5t73 23.5q41 0 58 -14.5t17 -48.5q0 -16 -5 -46q-9 -61 -31.5 -85t-72.5 -24q-41 0 -58.5 15t-17.5 51z" />
<glyph unicode="&#xa2;" horiz-adv-x="863" d="M142 503q0 79 19 203q20 124 48 210t76 156t123 109.5t181 52.5l31 193h109l-30 -187q120 0 227 -31l-28 -110q-96 17 -171 17q-81 0 -140.5 -9t-103.5 -32.5t-72 -52.5t-49 -80t-33 -103t-25 -133q-20 -125 -20 -197q0 -80 25.5 -129t94 -77t187.5 -28q66 0 180 22 l-6 -116q-144 -29 -238 -31l-30 -189h-110l31 192q-150 18 -213 108.5t-63 241.5z" />
<glyph unicode="&#xa3;" horiz-adv-x="1151" d="M143 641l19 120h190q2 144 22 272q14 87 49 152.5t83.5 106.5t114 66.5t133.5 35t150 9.5q111 0 180.5 -33.5t127.5 -100.5l-92 -93q-97 94 -230 94q-186 0 -266.5 -66.5t-104.5 -220.5q-11 -68 -13 -222h318l-19 -120h-303q-3 -86 -15 -156q-16 -99 -49 -176t-93 -175 h358q153 0 314 22l-6 -123q-180 -33 -444 -33h-346q-39 0 -55.5 17t-11.5 45q3 18 28 59t55 86.5t60 117t41 142.5q11 77 13 174h-208z" />
<glyph unicode="&#xa4;" horiz-adv-x="1236" d="M125 292l144 141q-84 113 -84 252q0 142 85 256l-145 144l92 92l145 -145q116 84 256 84q142 0 256 -82l142 143l95 -92l-144 -141q87 -115 87 -259q0 -143 -87 -254l145 -140l-96 -94l-142 145q-117 -84 -256 -84q-144 0 -259 84l-142 -145zM321 686q0 -120 85.5 -207.5 t210.5 -87.5q120 0 209.5 85.5t89.5 209.5q0 123 -86.5 210t-212.5 87q-121 0 -208.5 -86t-87.5 -211z" />
<glyph unicode="&#xa5;" horiz-adv-x="1064" d="M208 307l18 107h239l20 126l-4 13h-233l16 108h185l-212 728h157l195 -683l417 683h152l-448 -728h188l-16 -108h-238l-8 -13l-20 -126h244l-18 -107h-243l-48 -307h-152l49 307h-240z" />
<glyph unicode="&#xa6;" horiz-adv-x="449" d="M157 -289v661h135v-661h-135zM157 743v660h135v-660h-135z" />
<glyph unicode="&#xa7;" horiz-adv-x="1088" d="M40 -260l35 122q171 -31 293 -31q36 0 61 1t68.5 6t74 16.5t63.5 30.5t53.5 51t27.5 75q2 18 2 26q0 32 -15 60t-34 46.5t-59 41.5t-65.5 35t-79.5 35q-41 18 -66 29t-62.5 31.5t-61 37.5t-51 42.5t-42.5 52t-25.5 61.5t-10.5 74q0 30 4 55q27 172 248 279 q-83 79 -83 172q0 19 3 42q22 142 138 228.5t294 86.5q188 0 344 -36l-33 -118q-150 30 -295 30q-125 0 -204.5 -47t-92.5 -132q-1 -9 -1 -25q0 -27 9 -51t30.5 -45t40.5 -36.5t56 -34.5t58 -28.5t66 -29.5q52 -22 87.5 -39.5t81 -47.5t72.5 -60t46.5 -73t19.5 -92 q0 -23 -3 -45q-25 -158 -258 -281q101 -92 101 -202q0 -17 -3 -35q-11 -71 -46.5 -127t-83.5 -90.5t-110.5 -57t-123 -31.5t-125.5 -9q-185 0 -343 37zM287 613q0 -56 36 -101t125 -89q37 -18 110 -45.5t120 -51.5q193 91 209 194q3 16 3 32q0 57 -42.5 103t-143.5 95 q-27 13 -99.5 42t-116.5 53q-179 -80 -197 -192q-4 -28 -4 -40z" />
<glyph unicode="&#xa8;" horiz-adv-x="753" d="M227 1303q7 39 38 66.5t69 27.5t60.5 -27.5t15.5 -66.5t-37 -66.5t-68 -27.5q-39 0 -61.5 27.5t-16.5 66.5zM549 1303q7 39 38 66.5t70 27.5q38 0 60 -27.5t15 -66.5q-7 -40 -37 -67t-68 -27t-61.5 27.5t-16.5 66.5z" />
<glyph unicode="&#xa9;" horiz-adv-x="1688" d="M114 718q0 150 57 285.5t154.5 232t233 153.5t285.5 57t285.5 -57t233 -153.5t155 -232t57.5 -285.5t-57.5 -286t-155 -234t-233 -155.5t-285.5 -57.5t-285.5 57.5t-232.5 155.5t-154.5 234t-57.5 286zM224 718q0 -175 82 -319.5t224.5 -227t313.5 -82.5q172 0 314 82.5 t224 227t82 319.5q0 173 -82 317t-224.5 226t-313.5 82q-128 0 -243 -48.5t-197.5 -131.5t-131 -199t-48.5 -246zM477 718q0 85 24.5 164t70.5 142.5t119.5 101.5t163.5 38q81 0 154.5 -26.5t129.5 -86.5t68 -144h-117q-12 74 -77 115t-158 41q-112 0 -183.5 -92t-71.5 -253 q0 -162 68.5 -253t186.5 -91q88 0 154.5 48t80.5 129h117q-12 -128 -112.5 -206t-239.5 -78q-123 0 -210 61.5t-127.5 161.5t-40.5 228z" />
<glyph unicode="&#xaa;" horiz-adv-x="842" d="M160 826q0 21 5 53q32 200 220 228q86 13 301 21l4 28q5 33 5 53q0 59 -37 85t-129 26q-97 0 -246 -22l4 86q160 26 275 26q117 0 181 -37.5t64 -133.5q0 -27 -4 -52l-54 -342q-12 -71 -24 -125q-129 -61 -312 -61q-130 0 -191.5 39t-61.5 128zM271 845q0 -56 38.5 -77 t127.5 -21q108 0 192 32q3 17 9.5 55.5t9.5 55.5l25 157q-183 -4 -264 -20q-62 -13 -93 -44t-42 -101q-3 -21 -3 -37z" />
<glyph unicode="&#xab;" horiz-adv-x="967" d="M114 530l344 403h148l-318 -403l191 -403h-149zM479 530l344 403h147l-317 -403l190 -403h-148z" />
<glyph unicode="&#xac;" horiz-adv-x="1276" d="M198 657l23 137h975l-93 -586h-148l72 449h-829z" />
<glyph unicode="&#xad;" horiz-adv-x="801" d="M176 479l21 130h515l-21 -130h-515z" />
<glyph unicode="&#xae;" horiz-adv-x="1098" d="M105 1003q0 186 129 314.5t315 128.5t315 -128.5t129 -314.5t-129.5 -315t-314.5 -129q-186 0 -315 129t-129 315zM186 1003q0 -156 105 -262t258 -106t258.5 106t105.5 262q0 154 -105.5 260.5t-258.5 106.5t-258 -106t-105 -261zM378 755v514h181q200 0 200 -149 q0 -55 -28 -91t-80 -49l111 -225h-93l-103 213h-105v-213h-83zM461 1038h91q125 0 125 82q0 42 -31.5 60t-96.5 18h-88v-160z" />
<glyph unicode="&#xaf;" horiz-adv-x="836" d="M237 1245l17 107h550l-17 -107h-550z" />
<glyph unicode="&#xb0;" horiz-adv-x="777" d="M101 1159q0 119 84 203t203 84t203.5 -84t84.5 -203t-84.5 -203t-203.5 -84t-203 84t-84 203zM207 1159q0 -76 52.5 -128.5t128.5 -52.5t129 52.5t53 128.5q0 75 -53 128t-129 53t-128.5 -53t-52.5 -128z" />
<glyph unicode="&#xb1;" horiz-adv-x="1209" d="M73 26l22 137h975l-21 -137h-976zM176 670l21 135h415l59 371h145l-59 -371h415l-21 -135h-415l-60 -377h-145l59 377h-414z" />
<glyph unicode="&#xb2;" horiz-adv-x="656" d="M85 839q27 82 46 131t44.5 97t55 78t71 57t98.5 50q95 38 150 84.5t66 116.5q3 15 3 28q0 55 -45 76.5t-150 21.5q-82 0 -201 -18l3 86q143 26 253 26q252 0 252 -162q0 -19 -3 -40q-17 -110 -88 -180t-196 -119q-99 -39 -143.5 -91.5t-73.5 -146.5h415l-15 -95h-542z " />
<glyph unicode="&#xb3;" horiz-adv-x="656" d="M79 855l26 89q141 -19 192 -19q118 0 175 32.5t71 120.5q3 15 3 30q0 48 -28 77t-77 34q-46 6 -125 6h-48l13 84q79 1 176 15q56 9 91.5 43.5t43.5 86.5q3 18 3 32q0 25 -9 43t-23.5 28.5t-39 16t-48.5 7t-59 1.5q-71 0 -206 -19l3 87q132 24 234 24q57 0 100 -6.5 t81.5 -23t59 -49.5t20.5 -81q0 -18 -3 -41q-23 -142 -144 -198q43 -19 70.5 -57.5t27.5 -95.5q0 -16 -3 -37q-22 -139 -109 -196.5t-239 -57.5q-120 0 -229 24z" />
<glyph unicode="&#xb4;" horiz-adv-x="457" d="M150 1171l223 293h176l-281 -293h-118z" />
<glyph unicode="&#xb5;" horiz-adv-x="1195" d="M98 -403l237 1497h138l-111 -701q-6 -33 -6 -65q0 -94 48 -151t140 -57q136 0 230.5 126t126.5 327l82 521h140l-114 -719q-18 -108 -18 -159q0 -99 66 -123l-17 -108q-54 0 -91 19.5t-55.5 55t-25 74.5t-6.5 90h-1q-58 -114 -148.5 -176.5t-189.5 -62.5 q-69 0 -118.5 26.5t-89.5 84.5l-80 -499h-137z" />
<glyph unicode="&#xb6;" horiz-adv-x="1239" d="M185 953q0 26 5 63q32 205 177 310.5t373 105.5h507l-277 -1747h-124l259 1635h-283l-260 -1635h-123l147 928q-186 1 -293.5 96.5t-107.5 243.5z" />
<glyph unicode="&#xb7;" horiz-adv-x="454" d="M181 542q0 10 4 44q10 61 32.5 85.5t72.5 24.5q40 0 57.5 -15.5t17.5 -50.5q0 -10 -4 -44q-10 -61 -32 -84.5t-73 -23.5q-41 0 -58 14.5t-17 49.5z" />
<glyph unicode="&#xb8;" horiz-adv-x="438" d="M-18 -375l38 75q56 -28 111 -28q39 0 69.5 17t36.5 56q5 33 -22 55.5t-61.5 31t-68.5 8.5l118 160h99l-83 -106q58 -3 96 -34t38 -84q0 -6 -2 -22q-13 -83 -78.5 -123t-155.5 -40q-82 0 -135 34z" />
<glyph unicode="&#xb9;" horiz-adv-x="438" d="M168 1510l8 91q126 20 237 66h83l-131 -825h-107l113 710q-97 -27 -203 -42z" />
<glyph unicode="&#xba;" horiz-adv-x="881" d="M192 900q0 58 12 135q32 205 117.5 290t259.5 85q143 0 207 -56.5t64 -184.5q0 -59 -12 -134q-32 -203 -117.5 -289.5t-259.5 -86.5q-143 0 -207 56t-64 185zM302 907q0 -89 39.5 -123t132.5 -34q119 0 175 61.5t82 223.5q11 67 11 124q0 88 -39.5 124t-132.5 36 q-119 0 -174 -58.5t-81 -225.5q-13 -81 -13 -128z" />
<glyph unicode="&#xbb;" horiz-adv-x="967" d="M80 127l319 403l-191 403h148l216 -403l-343 -403h-149zM445 127l318 403l-190 403h148l216 -403l-343 -403h-149z" />
<glyph unicode="&#xbc;" horiz-adv-x="1456" d="M157 -29l1060 1490h121l-1060 -1490h-121zM226 1276l9 89q131 21 236 67h83l-131 -826h-107l113 711q-101 -26 -203 -41zM720 261q5 35 61 95l385 420q52 58 103 58t51 -51q0 -5 -2 -19l-76 -480h109l-15 -88h-108l-31 -196h-108l31 196h-328q-46 0 -61.5 17.5 t-10.5 47.5zM837 284h297l63 396z" />
<glyph unicode="&#xbd;" horiz-adv-x="1608" d="M161 -29l1059 1490h122l-1061 -1490h-120zM229 1276l9 89q130 21 236 67h83l-130 -826h-107l112 711q-101 -26 -203 -41zM903 0q34 103 57 159t58.5 108.5t81.5 84.5t117 61q96 39 151.5 85t65.5 116q2 10 2 29q0 54 -45 75.5t-150 21.5q-93 0 -201 -18l3 87 q139 25 254 25q252 0 252 -159q0 -19 -3 -40q-17 -110 -89 -182t-196 -120q-99 -39 -143 -91t-73 -147h416l-16 -95h-542z" />
<glyph unicode="&#xbe;" horiz-adv-x="1606" d="M134 620l26 88q131 -18 192 -18q117 0 174.5 33t71.5 121q3 15 3 29q0 48 -28 77t-77 34q-54 6 -119 6q-34 0 -54 -1l13 86q95 1 176 13q56 9 91 44t43 87q3 18 3 33q0 25 -9 43t-23 28t-39 15t-48 6.5t-59 1.5q-78 0 -206 -18l3 87q130 24 233 24q45 0 80.5 -4 t70.5 -14.5t58.5 -27.5t38 -46t14.5 -68q0 -11 -4 -41q-23 -142 -143 -198q99 -45 99 -153q0 -17 -3 -37q-22 -139 -109 -196.5t-240 -57.5q-112 0 -229 24zM307 -29l1059 1490h121l-1060 -1490h-120zM870 261q5 36 60 95l386 420q54 58 103 58q50 0 50 -51q0 -5 -2 -19 l-76 -480h109l-14 -88h-109l-31 -196h-107l30 196h-327q-46 0 -61.5 17.5t-10.5 47.5zM986 284h298l62 396z" />
<glyph unicode="&#xbf;" horiz-adv-x="1008" d="M49 -72q0 59 9 112q14 91 44.5 157t68.5 101t84 59t91 32.5t89 20t78.5 23.5t60 40.5t33.5 72.5l22 118h129l-18 -125q-5 -30 -8 -51q-10 -63 -40.5 -102t-72.5 -55.5t-90.5 -26t-98 -21.5t-92.5 -34.5t-75.5 -72.5t-44.5 -128q-8 -45 -8 -92q0 -109 74.5 -148t269.5 -39 q145 0 309 29l6 -126q-185 -38 -374 -38q-87 0 -149 6t-121.5 24.5t-95.5 50.5t-58 85t-22 128zM651 944l5 43q10 62 32 85.5t73 23.5q41 0 58 -14.5t17 -49.5q0 -11 -4 -45q-10 -61 -33 -85t-73 -24q-40 0 -57.5 15t-17.5 51z" />
<glyph unicode="&#xc0;" d="M-3 0l697 1339q55 107 140 107t107 -107l268 -1339h-165l-79 412h-600l-210 -412h-158zM430 538h510l-140 727zM581 1825h188l152 -238h-127z" />
<glyph unicode="&#xc1;" d="M-3 0l698 1339q55 107 140 107q84 0 106 -107l268 -1339h-164l-80 412h-600l-210 -412h-158zM430 538h511l-140 727zM793 1575l227 238h188l-288 -238h-127z" />
<glyph unicode="&#xc2;" d="M-3 0l698 1339q55 107 140 107t107 -107l267 -1339h-164l-80 412h-600l-210 -412h-158zM430 538h511l-140 727zM584 1575l239 238h129l168 -238h-128l-115 164l-167 -164h-126z" />
<glyph unicode="&#xc3;" d="M-3 0l697 1339q55 107 140 107t107 -107l268 -1339h-165l-79 412h-600l-210 -412h-158zM430 538h510l-140 727zM612 1599q23 93 72 143.5t101 50.5q31 0 54.5 -10t37 -24.5t25 -29.5t25 -25t29.5 -10q49 0 81 95h92q-23 -93 -72.5 -143.5t-101.5 -50.5q-38 0 -65.5 15.5 t-39.5 33.5t-29 33.5t-36 15.5q-50 0 -81 -94h-92z" />
<glyph unicode="&#xc4;" d="M-3 0l697 1339q55 107 141 107q84 0 106 -107l268 -1339h-165l-79 412h-600l-210 -412h-158zM430 538h510l-140 727zM619 1690q6 39 37.5 66.5t69.5 27.5t60 -27.5t16 -66.5t-37 -66t-69 -27t-60.5 27t-16.5 66zM941 1690q6 39 37.5 66.5t69.5 27.5t60 -27.5t16 -66.5 t-36.5 -66t-68.5 -27q-39 0 -61.5 27t-16.5 66z" />
<glyph unicode="&#xc5;" d="M-3 0l697 1339q55 107 141 107q84 0 106 -107l268 -1339h-165l-79 412h-600l-210 -412h-158zM430 538h510l-140 727zM683 1723q0 22 2 33q13 82 79.5 140.5t147.5 58.5q73 0 120.5 -48t47.5 -120q0 -16 -3 -31q-14 -83 -80.5 -142t-147.5 -59q-72 0 -119 48t-47 120z M763 1736q0 -43 28 -71t71 -28q48 0 88 35t47 84q1 6 1 18q0 43 -27.5 71t-70.5 28q-49 0 -88 -34t-47 -83q-2 -14 -2 -20z" />
<glyph unicode="&#xc6;" horiz-adv-x="1830" d="M-3 0l668 1280q86 166 306 166q138 0 190 -94q65 52 156.5 67.5t227.5 15.5q161 0 343 -8l-19 -124h-351q-101 0 -158.5 -10t-97 -42.5t-57.5 -82t-32 -139.5l-37 -235h623l-20 -129h-624l-42 -264q-11 -74 -11 -118q0 -92 57 -123.5t213 -31.5h350l-19 -125 q-157 -7 -346 -7q-48 0 -80.5 1t-75.5 4t-72 10t-62 18.5t-54 29.5t-39.5 42t-27 58t-8.5 76q0 28 7 77l15 100h-554l-211 -412h-158zM430 538h511l94 594q6 39 6 68q0 60 -26.5 86t-83.5 26q-69 0 -108 -40t-81 -122z" />
<glyph unicode="&#xc7;" horiz-adv-x="1062" d="M159 420q0 128 27 296q25 159 58 272t85 204t125 144.5t174 81.5t237 28q169 0 315 -31l-34 -126q-144 23 -242 23q-64 0 -118.5 -6t-99.5 -19.5t-81.5 -30t-66.5 -43.5t-53 -54.5t-42 -67t-32.5 -76.5t-26 -89.5t-21.5 -99t-19 -110.5q-28 -173 -28 -275 q0 -83 18.5 -140t63.5 -99t123 -62t194 -20q99 0 249 22l-5 -124q-141 -29 -289 -32l-64 -82q58 -3 96 -34t38 -84q0 -7 -2 -23q-13 -83 -78.5 -122.5t-155.5 -39.5q-82 0 -135 34l38 75q56 -28 111 -28q39 0 69.5 17t36.5 56q5 33 -22 55.5t-61 31t-68 8.5l101 136 q-225 11 -320 114.5t-95 319.5z" />
<glyph unicode="&#xc8;" horiz-adv-x="1081" d="M149 234q0 36 6 78l129 806q8 50 23 91t33 71.5t45 54.5t53 40t62.5 27.5t66.5 18t73.5 9.5t75.5 4t79 1q162 0 344 -8l-19 -124h-352q-101 0 -158.5 -10t-96.5 -42.5t-57 -82t-32 -139.5l-38 -235h624l-21 -129h-623l-42 -264q-12 -81 -12 -120q0 -91 56.5 -122 t213.5 -31h351l-20 -125q-157 -7 -346 -7q-65 0 -107 2t-96.5 9t-88 22.5t-65 41t-46.5 67t-15 96.5zM593 1802h189l152 -238h-127z" />
<glyph unicode="&#xc9;" horiz-adv-x="1080" d="M149 235q0 35 6 77l128 806q8 50 23 91t33 71.5t45 54.5t53 40t62.5 27.5t66.5 18t73.5 9.5t75.5 4t79 1q162 0 344 -8l-19 -124h-352q-101 0 -158.5 -10t-96.5 -42.5t-57 -82t-32 -139.5l-37 -235h623l-20 -129h-623l-42 -264q-12 -81 -12 -119q0 -92 56 -123t213 -31 h352l-20 -125q-157 -7 -346 -7q-55 0 -91.5 1t-85 6t-79.5 14.5t-64.5 27t-53 42.5t-32 62.5t-12.5 85.5zM686 1564l227 238h189l-288 -238h-128z" />
<glyph unicode="&#xca;" horiz-adv-x="1081" d="M149 234q0 36 6 78l129 806q8 50 23 91t33 71.5t45 54.5t53 40t62.5 27.5t66.5 18t73.5 9.5t75.5 4t79 1q162 0 344 -8l-19 -124h-352q-101 0 -158.5 -10t-96.5 -42.5t-57 -82t-32 -139.5l-38 -235h624l-21 -129h-623l-42 -264q-11 -74 -11 -119q0 -92 56 -123t213 -31 h351l-19 -125q-157 -7 -347 -7q-65 0 -107 2t-96.5 9t-88 22.5t-65 41t-46.5 67t-15 96.5zM520 1564l239 238h129l168 -238h-128l-114 164l-168 -164h-126z" />
<glyph unicode="&#xcb;" horiz-adv-x="1080" d="M149 235q0 35 6 77l128 806q8 50 23 91t33 71.5t45 54.5t53 40t62.5 27.5t66.5 18t73.5 9.5t75.5 4t79 1q162 0 344 -8l-20 -124h-351q-67 0 -112.5 -4t-83 -16.5t-60 -31t-40.5 -51t-28 -72t-20 -99.5l-37 -235h623l-20 -129h-623l-42 -264q-12 -81 -12 -120 q0 -92 56.5 -122.5t212.5 -30.5h352l-21 -125q-157 -7 -345 -7q-55 0 -91.5 1t-85 6t-79.5 14.5t-64.5 27t-53 42.5t-32 62.5t-12.5 85.5zM559 1681q6 39 37.5 66.5t69.5 27.5q39 0 61 -27.5t15 -66.5q-6 -39 -36 -66.5t-69 -27.5q-38 0 -61.5 27.5t-16.5 66.5zM882 1681 q6 39 37.5 66.5t69.5 27.5q39 0 60.5 -27.5t15.5 -66.5q-7 -39 -37 -66.5t-69 -27.5q-38 0 -61 27.5t-16 66.5z" />
<glyph unicode="&#xcc;" horiz-adv-x="494" d="M113 0l227 1432h155l-227 -1432h-155zM165 1807h188l151 -238h-126z" />
<glyph unicode="&#xcd;" horiz-adv-x="494" d="M113 0l227 1432h155l-227 -1432h-155zM372 1569l228 238h189l-289 -238h-128z" />
<glyph unicode="&#xce;" horiz-adv-x="495" d="M113 0l227 1432h155l-226 -1432h-156zM170 1559l239 238h129l168 -238h-128l-115 164l-167 -164h-126z" />
<glyph unicode="&#xcf;" horiz-adv-x="495" d="M113 0l227 1432h155l-226 -1432h-156zM203 1676q7 39 38 66.5t69 27.5t60.5 -27.5t15.5 -66.5q-6 -39 -36.5 -66t-68.5 -27q-39 0 -61.5 27t-16.5 66zM526 1676q7 39 38 66.5t69 27.5t60.5 -27.5t15.5 -66.5q-6 -39 -36.5 -66t-69.5 -27q-38 0 -60.5 27t-16.5 66z" />
<glyph unicode="&#xd0;" horiz-adv-x="1402" d="M156 681l18 117h122l98 616q203 32 431 32q148 0 249.5 -26.5t161.5 -82.5t85.5 -134.5t25.5 -190.5q0 -123 -28 -296q-17 -111 -37 -194.5t-49.5 -163t-68 -135.5t-92 -103t-122 -75.5t-157 -44t-199.5 -15.5q-227 0 -421 34l105 662h-122zM346 136q135 -19 227 -19 q104 0 185.5 17t137.5 40.5t99.5 73t68 88t45.5 114.5t30 124t24 142q30 187 30 275q0 62 -11.5 109t-40.5 88.5t-77 68.5t-123.5 42t-177.5 15q-93 0 -233 -17l-80 -499h227l-19 -117h-226z" />
<glyph unicode="&#xd1;" horiz-adv-x="1408" d="M115 0l211 1334q9 57 39 84.5t74 27.5q40 0 68.5 -24.5t52.5 -77.5l511 -1136l194 1224h142l-211 -1334q-9 -57 -38.5 -85t-74.5 -28q-41 0 -69 24.5t-52 78.5l-511 1137l-194 -1225h-142zM663 1598q23 93 72 143.5t101 50.5q31 0 54.5 -10t37 -25t25 -29.5t25 -24.5 t29.5 -10q50 0 81 94h92q-23 -93 -72.5 -143.5t-101.5 -50.5q-31 0 -54.5 10t-37 24.5t-24.5 29.5t-24.5 25t-29.5 10q-51 0 -81 -94h-92z" />
<glyph unicode="&#xd2;" horiz-adv-x="1360" d="M166 417q0 122 28 299q25 161 59.5 276t86 204.5t123 143t167 80t223.5 26.5q246 0 350.5 -101t104.5 -330q0 -122 -28 -299q-32 -201 -78 -334t-123 -225t-187.5 -132t-269.5 -40q-246 0 -351 101.5t-105 330.5zM318 412q0 -71 15 -122.5t50 -91.5t98.5 -59.5 t155.5 -19.5q61 0 112.5 9.5t92 25t74 43t58.5 55.5t46 71.5t35 82t27.5 94.5t22 102.5t18.5 113.5q33 207 33 302q0 72 -14.5 123.5t-50 91.5t-98.5 60t-155 20q-55 0 -102.5 -7t-86 -22t-70.5 -33.5t-57.5 -47t-45.5 -57t-37 -69.5t-29 -77t-23 -87.5t-19 -94t-17 -102.5 q-33 -209 -33 -304zM649 1806h189l152 -238h-127z" />
<glyph unicode="&#xd3;" horiz-adv-x="1360" d="M166 417q0 122 28 299q25 161 59.5 276t86 204.5t123 143t167 80t223.5 26.5q246 0 350.5 -101t104.5 -330q0 -122 -28 -299q-32 -201 -78 -334t-123 -225t-187.5 -132t-269.5 -40q-246 0 -351 101.5t-105 330.5zM318 412q0 -71 15 -122.5t50 -91.5t98.5 -59.5 t155.5 -19.5q61 0 112.5 9.5t92 25t74 43t58.5 55.5t46 71.5t35 82t27.5 94.5t22 102.5t18.5 113.5q33 207 33 302q0 72 -14.5 123.5t-50 91.5t-98.5 60t-155 20q-55 0 -102.5 -7t-86 -22t-70.5 -33.5t-57.5 -47t-45.5 -57t-37 -69.5t-29 -77t-23 -87.5t-19 -94t-17 -102.5 q-33 -209 -33 -304zM766 1568l227 238h188l-288 -238h-127z" />
<glyph unicode="&#xd4;" horiz-adv-x="1361" d="M167 418q0 127 27 298q25 161 59.5 276t86 204.5t123 143t167 80t223.5 26.5q246 0 351 -101t105 -330q0 -122 -28 -299q-25 -161 -59.5 -276t-86 -204.5t-123 -143t-167.5 -80.5t-223 -27q-246 0 -350.5 101.5t-104.5 331.5zM318 412q0 -71 15 -122.5t50 -91.5 t98.5 -59.5t155.5 -19.5q78 0 141 15.5t108 40.5t81 69.5t59 88.5t42.5 112.5t30.5 126t25 144.5q33 207 33 302q0 72 -15 123.5t-50 91.5t-98.5 60t-155.5 20q-55 0 -102.5 -7t-86 -22t-70.5 -33.5t-57.5 -47t-45.5 -57t-37 -69.5t-29 -77t-23 -87.5t-19 -94t-17 -102.5 q-33 -209 -33 -304zM605 1568l239 238h129l167 -238h-127l-115 164l-167 -164h-126z" />
<glyph unicode="&#xd5;" horiz-adv-x="1361" d="M167 418q0 127 27 298q25 161 59.5 276t86 204.5t123 143t167 80t223.5 26.5q246 0 350.5 -101.5t104.5 -330.5q0 -127 -27 -298q-25 -161 -59.5 -276t-86 -204.5t-123 -143t-167.5 -80.5t-223 -27q-246 0 -350.5 101.5t-104.5 331.5zM318 412q0 -71 15 -122.5t50 -91.5 t98.5 -59.5t155.5 -19.5q78 0 141 15.5t108 40.5t81 69.5t59 88.5t42.5 112.5t30.5 126t25 144.5q33 207 33 302q0 72 -15 123.5t-50 91.5t-98.5 60t-155.5 20q-55 0 -102.5 -7t-86 -22t-70 -33t-57.5 -47.5t-46 -57t-36.5 -69t-28.5 -77.5t-23.5 -87.5t-19 -94 t-17.5 -102.5q-33 -209 -33 -304zM630 1582q23 93 72.5 143.5t101.5 50.5q31 0 54.5 -10t37 -25t24.5 -29.5t24.5 -24.5t29.5 -10q50 0 82 95h91q-23 -93 -72 -143.5t-101 -50.5q-38 0 -65.5 15.5t-39.5 34t-29 34t-36 15.5q-49 0 -81 -95h-93z" />
<glyph unicode="&#xd6;" horiz-adv-x="1360" d="M166 417q0 122 28 299q32 201 78 334t123 224.5t188 131.5t270 40q245 0 350 -101t105 -330q0 -122 -28 -299q-32 -201 -78 -334t-123 -225t-187.5 -132t-269.5 -40q-246 0 -351 101.5t-105 330.5zM318 412q0 -71 15 -122.5t50 -91.5t98.5 -59.5t155.5 -19.5 q61 0 112.5 9.5t92 25t74 43t58.5 55.5t46 71.5t35 82t27.5 94.5t22 102.5t18.5 113.5q33 207 33 302q0 72 -14.5 123.5t-50 91.5t-98.5 60t-155 20q-55 0 -102.5 -7t-86 -22t-70.5 -33.5t-57.5 -47t-45.5 -57t-37 -69.5t-29 -77t-23 -87.5t-19 -94t-17 -102.5 q-33 -209 -33 -304zM636 1672q7 39 38 66.5t69 27.5t60.5 -27.5t15.5 -66.5q-6 -39 -36.5 -66t-68.5 -27q-39 0 -61.5 27t-16.5 66zM959 1672q7 39 37.5 66.5t68.5 27.5t61 -27.5t16 -66.5q-6 -39 -36.5 -66t-69.5 -27q-38 0 -60.5 27t-16.5 66z" />
<glyph unicode="&#xd7;" horiz-adv-x="1094" d="M103 254l395 347l-285 347l113 98l285 -346l394 346l79 -97l-393 -346l285 -347l-111 -100l-286 348l-395 -348z" />
<glyph unicode="&#xd8;" horiz-adv-x="1360" d="M125 -17l108 147q-67 98 -67 287q0 122 28 299q25 161 59.5 276t86 204.5t123 143t167 80t223.5 26.5q199 0 306 -67l99 134l91 -65l-109 -147q68 -100 68 -287q0 -121 -28 -298q-25 -161 -59.5 -276t-86 -204.5t-123 -143t-167.5 -80.5t-223 -27q-199 0 -306 67 l-99 -133zM318 413q0 -84 21 -141l728 983q-77 58 -229 58q-55 0 -102.5 -7t-86 -22t-70 -33t-57.5 -47.5t-46 -57t-36.5 -69t-28.5 -77.5t-23.5 -87.5t-19 -94t-17.5 -102.5q-33 -209 -33 -303zM407 176q75 -57 230 -57q61 0 112.5 9.5t92 25t74 43t58.5 55.5t46 71.5 t35 82t27.5 94.5t22 102.5t18.5 113.5q33 207 33 302q0 87 -20 142z" />
<glyph unicode="&#xd9;" horiz-adv-x="1339" d="M166 332q0 56 11 131l153 969h154l-156 -985q-8 -51 -8 -89q0 -122 74 -180t235 -58q189 0 283.5 79t121.5 248l155 985h154l-153 -969q-22 -139 -72 -234t-128 -147.5t-169.5 -74.5t-212.5 -22q-84 0 -149 10t-121.5 34t-93.5 63t-57.5 99.5t-20.5 140.5zM629 1796h188 l152 -238h-127z" />
<glyph unicode="&#xda;" horiz-adv-x="1338" d="M166 332q0 56 11 131l153 969h154l-156 -985q-8 -51 -8 -89q0 -122 74 -180t235 -58q188 0 282.5 79t121.5 248l156 985h154l-154 -969q-22 -139 -72 -234t-127.5 -147.5t-169 -74.5t-213.5 -22q-84 0 -149 10t-121 34t-93 63t-57.5 99.5t-20.5 140.5zM754 1558l228 238 h188l-289 -238h-127z" />
<glyph unicode="&#xdb;" horiz-adv-x="1339" d="M166 332q0 56 11 131l153 969h154l-156 -985q-8 -51 -8 -89q0 -122 74 -180t235 -58q189 0 283.5 79t121.5 248l155 985h154l-153 -969q-22 -139 -72 -234t-128 -147.5t-169.5 -74.5t-212.5 -22q-84 0 -149 10t-121.5 34t-93.5 63t-57.5 99.5t-20.5 140.5zM599 1558 l239 238h130l168 -238h-130l-113 164l-167 -164h-127z" />
<glyph unicode="&#xdc;" horiz-adv-x="1339" d="M166 332q0 56 11 131l154 969h153l-156 -985q-7 -45 -7 -89q0 -122 73.5 -180t234.5 -58q189 0 283.5 79t121.5 248l156 985h153l-153 -969q-22 -139 -72 -234t-127.5 -147.5t-169 -74.5t-213.5 -22q-105 0 -182.5 16.5t-138 55t-91 107.5t-30.5 168zM623 1677 q7 39 38 66.5t69 27.5t60 -27.5t16 -66.5q-7 -39 -37.5 -66.5t-68.5 -27.5t-60.5 27.5t-16.5 66.5zM946 1677q7 39 37.5 66.5t69.5 27.5q38 0 60.5 -27.5t15.5 -66.5q-6 -39 -37 -66.5t-69 -27.5t-60.5 27.5t-16.5 66.5z" />
<glyph unicode="&#xdd;" horiz-adv-x="1136" d="M210 1432h168l246 -715l479 715h162l-590 -875l-89 -557h-155l88 557zM666 1552l228 238h189l-290 -238h-127z" />
<glyph unicode="&#xde;" horiz-adv-x="1206" d="M101 0l227 1432h154l-43 -271q138 14 276 14q88 0 154.5 -7t132 -27t107.5 -54.5t68 -92.5t26 -137q0 -53 -8 -101q-16 -103 -54.5 -179.5t-90.5 -123.5t-126 -75.5t-151 -39t-176 -10.5q-101 0 -288 11l-53 -339h-155zM330 470q120 -13 272 -13q78 0 137.5 8t112.5 28 t89.5 53.5t62 86t36.5 123.5q7 47 7 75q0 115 -81 165t-264 50q-144 0 -284 -19z" />
<glyph unicode="&#xdf;" horiz-adv-x="1234" d="M93 0l156 981q47 296 173 423.5t371 127.5q197 0 292.5 -73t95.5 -196q0 -24 -5 -57q-13 -81 -56.5 -137t-97.5 -86.5t-107.5 -56.5t-94 -64t-48.5 -91q-2 -18 -2 -24q0 -36 20 -63t52 -45t70.5 -34t77 -36.5t70.5 -47t52 -70.5t20 -101q0 -28 -6 -63q-13 -82 -47.5 -142 t-86 -94t-111 -50t-131.5 -16q-140 0 -280 41l31 118q139 -33 215 -33q24 0 39.5 0.5t43.5 4t47 9.5t43 18t40 29.5t29.5 44.5t18.5 61q3 18 3 35q0 43 -20 75.5t-51.5 52.5t-70 37.5t-76.5 37t-69.5 43.5t-51.5 64t-20 93q0 22 5 55q9 59 34.5 103.5t59.5 71t73 47.5 t77.5 40.5t71.5 42t57.5 59t32.5 85.5q2 18 2 27q0 72 -64 115.5t-198 43.5q-170 0 -255 -92.5t-123 -332.5l-155 -981h-146z" />
<glyph unicode="&#xe0;" horiz-adv-x="1118" d="M90 232q0 29 7 80q47 298 323 339q135 20 464 32l7 49q7 51 7 80q0 93 -57.5 132.5t-201.5 39.5q-150 0 -363 -31l5 118q238 38 405 38q65 0 117 -6.5t99.5 -23.5t79 -45t50 -73t18.5 -105q0 -28 -7 -79l-83 -517q-14 -91 -35 -187q-188 -88 -462 -88q-192 0 -282.5 58 t-90.5 189zM238 259q0 -87 60.5 -119.5t199.5 -32.5q168 0 298 49q17 79 31 172l39 243q-289 -5 -412 -29q-98 -19 -146 -67.5t-65 -158.5q-5 -35 -5 -57zM473 1543h176l131 -294h-119z" />
<glyph unicode="&#xe1;" horiz-adv-x="1119" d="M90 232q0 29 7 80q47 298 323 339q135 20 464 32l8 49q6 44 6 80q0 93 -57 132.5t-201 39.5q-150 0 -363 -31l5 118q239 38 405 38q83 0 144.5 -11t113 -38t78.5 -78t27 -126q0 -28 -7 -79l-82 -517q-15 -99 -36 -187q-187 -88 -462 -88q-193 0 -283 57.5t-90 189.5z M238 259q0 -87 60.5 -119.5t199.5 -32.5q169 0 299 49q17 79 31 172l38 243q-288 -5 -411 -29q-98 -20 -146.5 -68t-65.5 -158q-5 -35 -5 -57zM624 1247l223 294h177l-282 -294h-118z" />
<glyph unicode="&#xe2;" horiz-adv-x="1119" d="M90 232q0 29 7 80q47 298 323 339q134 20 464 32l8 49q7 51 7 80q0 92 -58 132t-201 40q-150 0 -363 -31l5 118q237 38 404 38q65 0 117 -6.5t99.5 -23.5t79 -45t50 -73.5t18.5 -105.5q0 -29 -7 -78l-82 -517q-14 -91 -35 -187q-190 -88 -463 -88q-193 0 -283 57.5 t-90 189.5zM238 259q0 -87 60.5 -119.5t199.5 -32.5q168 0 298 49q20 96 32 172l38 243q-288 -5 -411 -29q-98 -20 -146.5 -68t-65.5 -158q-5 -35 -5 -57zM457 1241l234 294h121l146 -294h-120l-99 203l-164 -203h-118z" />
<glyph unicode="&#xe3;" horiz-adv-x="1118" d="M90 232q0 29 7 80q23 147 101.5 232.5t221.5 106.5q133 20 464 32l8 49q7 41 7 80q0 92 -58 132t-201 40q-150 0 -363 -31l5 118q237 38 404 38q65 0 117 -6.5t99.5 -23.5t79 -45t50 -73.5t18.5 -105.5q0 -29 -7 -78l-82 -517q-15 -99 -36 -187q-188 -88 -462 -88 q-192 0 -282.5 58t-90.5 189zM238 259q0 -87 60.5 -119.5t199.5 -32.5q168 0 298 49q20 96 32 172l38 243q-288 -5 -412 -29q-98 -19 -146 -67.5t-65 -158.5q-5 -35 -5 -57zM475 1295q24 97 73 149.5t102 52.5q38 0 65 -16t39 -35.5t29 -35.5t36 -16q50 0 82 99h92 q-24 -97 -73.5 -150t-101.5 -53q-38 0 -65 16t-39 35.5t-29 35.5t-36 16q-51 0 -82 -98h-92z" />
<glyph unicode="&#xe4;" horiz-adv-x="1119" d="M90 232q0 29 7 80q47 298 324 339q134 20 463 32l8 49q8 46 8 80q0 92 -58.5 132t-201.5 40q-150 0 -363 -31l6 118q237 38 403 38q65 0 117 -6.5t99.5 -23.5t79 -45t50 -73.5t18.5 -105.5q0 -29 -7 -78l-82 -517q-14 -91 -35 -187q-188 -88 -463 -88q-193 0 -283 57.5 t-90 189.5zM238 259q0 -87 60.5 -119.5t199.5 -32.5q169 0 299 49q17 79 31 172l38 243q-288 -5 -411 -29q-98 -20 -146.5 -68t-65.5 -158q-5 -35 -5 -57zM484 1385q6 39 37 66.5t70 27.5q38 0 60.5 -27.5t15.5 -66.5t-37.5 -66t-68.5 -27q-39 0 -61.5 27t-15.5 66z M806 1385q7 39 38 66.5t69 27.5q39 0 61 -27.5t16 -66.5q-7 -39 -37.5 -66t-68.5 -27q-39 0 -62 27t-16 66z" />
<glyph unicode="&#xe5;" horiz-adv-x="1119" d="M90 232q0 29 7 80q45 298 323 339q135 20 464 32l8 49q6 44 6 80q0 93 -57 132.5t-201 39.5q-150 0 -363 -31l5 118q237 38 405 38q83 0 144.5 -11t113 -38t78.5 -78t27 -126q0 -28 -7 -79l-82 -517q-14 -91 -35 -187q-188 -88 -463 -88q-193 0 -283 57.5t-90 189.5z M238 259q0 -87 60.5 -119.5t199.5 -32.5q169 0 299 49q17 79 31 172l38 243q-288 -5 -411 -29q-98 -20 -146.5 -68t-65.5 -158q-5 -35 -5 -57zM535 1387q0 15 3 32q13 83 79.5 141.5t147.5 58.5q73 0 120 -47.5t47 -119.5q0 -22 -2 -33q-14 -83 -80 -141.5t-148 -58.5 q-72 0 -119.5 48t-47.5 120zM616 1400q0 -43 28 -71t71 -28q49 0 88.5 34.5t46.5 83.5q2 12 2 19q0 43 -28 71t-71 28q-49 0 -88 -34.5t-47 -83.5q-2 -14 -2 -19z" />
<glyph unicode="&#xe6;" horiz-adv-x="1862" d="M90 232q0 29 7 80q47 298 323 339q135 20 464 32l8 49q6 44 6 79q0 93 -57.5 133t-200.5 40q-150 0 -363 -31l5 118q237 38 404 38q135 0 221 -33t116 -117q125 150 398 150q214 0 305.5 -87t91.5 -254q0 -68 -14 -152q-7 -41 -20 -104q-93 -16 -256 -31t-278 -20 l-256 -11q-3 -39 -3 -73q0 -139 66 -202.5t238 -63.5q152 0 383 31l-5 -120q-243 -37 -456 -37q-217 0 -301 130l-10 -51q-184 -79 -443 -79q-193 0 -283 57.5t-90 189.5zM238 259q0 -87 61 -119.5t199 -32.5q168 0 298 49q12 58 32 172l39 243q-289 -5 -412 -29 q-98 -20 -146.5 -68t-65.5 -158q-5 -35 -5 -57zM1008 563l285 14q189 8 360 30q4 16 15 77q6 42 6 80q0 109 -64.5 166t-207.5 57q-100 0 -168.5 -25.5t-113 -81.5t-69.5 -130t-43 -187z" />
<glyph unicode="&#xe7;" horiz-adv-x="902" d="M149 351q0 92 19 208q18 114 42.5 195.5t66 152t100 113t145 66t201.5 23.5q124 0 236 -31l-31 -115q-97 19 -176 19q-83 0 -144 -9.5t-106 -33.5t-74 -54t-50.5 -82.5t-34.5 -106.5t-26 -137q-21 -135 -21 -204q0 -61 14.5 -104t49.5 -75t97.5 -47t155.5 -15 q57 0 184 24l-4 -121q-142 -28 -244 -31l-65 -82q58 -3 96.5 -34t38.5 -84q0 -7 -2 -23q-13 -83 -78.5 -122.5t-155.5 -39.5q-82 0 -136 34l40 75q54 -28 110 -28q39 0 69.5 17t36.5 56q5 33 -22 55.5t-61.5 31t-68.5 8.5l102 138q-165 13 -234.5 107.5t-69.5 255.5z" />
<glyph unicode="&#xe8;" horiz-adv-x="1165" d="M149 361q0 74 17 186q48 303 173 432.5t385 129.5q214 0 305.5 -87t91.5 -254q0 -68 -14 -152q-10 -60 -19 -104q-93 -16 -256.5 -31t-278.5 -20l-256 -11q-3 -41 -3 -76q0 -138 65.5 -200.5t238.5 -62.5q152 0 383 31l-5 -120q-243 -37 -455 -37q-200 0 -286 97.5 t-86 278.5zM312 563l285 14q186 8 360 30q3 11 14 77q7 51 7 81q0 108 -64 165t-207 57q-99 0 -167.5 -25.5t-113.5 -81.5t-70.5 -130.5t-43.5 -186.5zM558 1543h177l130 -294h-118z" />
<glyph unicode="&#xe9;" horiz-adv-x="1165" d="M149 361q0 74 17 186q48 303 172.5 432.5t385.5 129.5q213 0 304.5 -86.5t91.5 -253.5q0 -75 -13 -153q-10 -60 -19 -104q-94 -16 -257.5 -31t-278.5 -20l-255 -11q-3 -41 -3 -76q0 -138 65.5 -200.5t238.5 -62.5q152 0 383 31l-5 -120q-245 -37 -456 -37q-199 0 -285 98 t-86 278zM311 563l286 14q187 8 359 30q7 30 15 77q7 49 7 80q0 108 -64.5 165.5t-207.5 57.5q-99 0 -167.5 -25.5t-113.5 -81.5t-70.5 -130.5t-43.5 -186.5zM682 1244l224 294h176l-281 -294h-119z" />
<glyph unicode="&#xea;" horiz-adv-x="1165" d="M149 362q0 73 17 185q48 303 173 432.5t385 129.5q214 0 305.5 -86.5t91.5 -253.5q0 -69 -14 -153q-10 -60 -19 -104q-94 -16 -257 -31t-278 -20l-256 -11q-3 -41 -3 -75q0 -69 14 -115.5t47.5 -81.5t93.5 -51t149 -16q152 0 383 31l-5 -120q-243 -37 -455 -37 q-200 0 -286 98t-86 279zM312 563l285 14q189 8 360 30q3 11 14 77q8 46 8 81q0 108 -64.5 165t-207.5 57q-99 0 -167.5 -25.5t-113.5 -81.5t-70.5 -130.5t-43.5 -186.5zM510 1241l235 294h120l146 -294h-120l-99 203l-165 -203h-117z" />
<glyph unicode="&#xeb;" horiz-adv-x="1165" d="M149 361q0 74 17 186q48 303 173 432.5t385 129.5q214 0 305.5 -86.5t91.5 -253.5q0 -69 -14 -153q-10 -60 -19 -104q-94 -16 -257 -31t-278 -20l-256 -11q-3 -41 -3 -76q0 -138 65.5 -200.5t238.5 -62.5q152 0 383 31l-5 -120q-243 -37 -455 -37q-200 0 -286 97.5 t-86 278.5zM312 563l285 14q189 8 360 30q3 11 14 77q7 49 7 80q0 108 -64 165.5t-207 57.5q-99 0 -167.5 -25.5t-113.5 -81.5t-70.5 -130.5t-43.5 -186.5zM540 1385q6 39 37.5 66.5t69.5 27.5t60 -27.5t16 -66.5q-7 -39 -37 -66t-68 -27q-39 0 -62 27t-16 66zM863 1385 q6 39 37.5 66.5t69.5 27.5t60 -27.5t16 -66.5q-7 -39 -37.5 -66t-68.5 -27q-39 0 -61.5 27t-15.5 66z" />
<glyph unicode="&#xec;" horiz-adv-x="446" d="M90 0l173 1094h146l-174 -1094h-145zM111 1557h176l131 -294h-118z" />
<glyph unicode="&#xed;" horiz-adv-x="446" d="M90 0l173 1094h146l-173 -1094h-146zM308 1263l223 294h176l-281 -294h-118z" />
<glyph unicode="&#xee;" horiz-adv-x="446" d="M90 0l173 1094h146l-173 -1094h-146zM114 1269l234 294h121l146 -294h-120l-99 203l-164 -203h-118z" />
<glyph unicode="&#xef;" horiz-adv-x="447" d="M90 0l173 1094h147l-173 -1094h-147zM131 1394q7 39 38 66.5t69 27.5t60.5 -27.5t15.5 -66.5q-6 -39 -36.5 -66t-68.5 -27t-61 27t-17 66zM453 1394q7 39 38.5 66.5t69.5 27.5t60.5 -27.5t15.5 -66.5q-6 -39 -36.5 -66t-68.5 -27q-39 0 -62 27t-17 66z" />
<glyph unicode="&#xf0;" horiz-adv-x="1174" d="M109 340q0 81 19 201q47 296 173 420t384 124q155 0 240 -58q-22 121 -66 230l-182 -64l-34 84l179 63q-40 80 -90 149l136 43q53 -65 93 -143l180 63l35 -84l-176 -62q90 -219 90 -499q0 -134 -21 -266q-48 -301 -174 -428.5t-384 -127.5q-212 0 -307 82.5t-95 272.5z M257 350q0 -136 61 -187.5t206 -51.5q125 0 201.5 39.5t123.5 132t73 258.5q17 107 17 177q0 133 -61.5 187t-207.5 54q-125 0 -199.5 -36t-122 -126t-73.5 -256q-18 -114 -18 -191z" />
<glyph unicode="&#xf1;" horiz-adv-x="1205" d="M112 0l132 831q14 91 35 187q219 91 499 91q104 0 174.5 -18.5t109 -54.5t54 -80t15.5 -105q0 -54 -14 -140l-112 -711h-147l109 684q11 71 11 118q0 97 -58.5 139.5t-210.5 42.5q-69 0 -158 -15.5t-142 -38.5q-18 -96 -30 -171l-121 -759h-146zM530 1301q24 97 73 149.5 t101 52.5q31 0 54.5 -10.5t37 -25.5t24.5 -30.5t24.5 -26t29.5 -10.5q51 0 83 99h91q-24 -97 -73.5 -150t-101.5 -53q-38 0 -65 16t-39 35.5t-29 35.5t-36 16q-51 0 -82 -98h-92z" />
<glyph unicode="&#xf2;" horiz-adv-x="1193" d="M151 343q0 89 18 204q49 308 175 435t385 127q211 0 305.5 -84.5t94.5 -276.5q0 -81 -19 -201q-48 -304 -174.5 -433t-384.5 -129q-212 0 -306 83t-94 275zM298 352q0 -137 61 -189t206 -52q185 0 272 94t126 342q19 119 19 192q0 135 -61 189.5t-206 54.5 q-94 0 -157 -19t-112 -69t-79 -133.5t-51 -214.5q-18 -115 -18 -195zM551 1543h176l130 -294h-118z" />
<glyph unicode="&#xf3;" horiz-adv-x="1193" d="M151 343q0 89 18 204q49 308 174.5 435t384.5 127q212 0 306.5 -84.5t94.5 -276.5q0 -81 -19 -201q-48 -304 -174.5 -433t-384.5 -129q-212 0 -306 83t-94 275zM298 352q0 -137 61 -189t206 -52q185 0 272 94t126 342q19 119 19 192q0 135 -61 189.5t-206 54.5 q-94 0 -157 -19t-112 -69t-79 -133.5t-51 -214.5q-18 -115 -18 -195zM654 1258l224 294h176l-280 -294h-120z" />
<glyph unicode="&#xf4;" horiz-adv-x="1194" d="M151 343q0 89 18 204q49 308 175 435t385 127q211 0 305.5 -84.5t94.5 -276.5q0 -87 -18 -201q-32 -204 -97 -325.5t-177 -179t-286 -57.5q-212 0 -306 83t-94 275zM299 352q0 -137 61 -189t205 -52q185 0 272.5 94t126.5 342q18 113 18 192q0 135 -61 189.5t-206 54.5 q-126 0 -200.5 -37t-122 -131t-75.5 -268q-18 -115 -18 -195zM500 1247l234 294h121l147 -294h-121l-99 203l-164 -203h-118z" />
<glyph unicode="&#xf5;" horiz-adv-x="1194" d="M151 343q0 89 18 204q49 308 175 435t385 127q211 0 305.5 -84.5t94.5 -276.5q0 -88 -18 -201q-48 -304 -175 -433t-385 -129q-212 0 -306 83t-94 275zM298 352q0 -137 61 -189t206 -52q185 0 272.5 94t126.5 342q19 119 19 192q0 135 -61.5 189.5t-206.5 54.5 q-94 0 -157 -19t-112 -69t-79 -133.5t-51 -214.5q-18 -115 -18 -195zM514 1289q24 97 73 149.5t101 52.5q31 0 54.5 -10.5t37 -25.5t24.5 -30.5t24.5 -26t29.5 -10.5q51 0 82 98h92q-24 -97 -73.5 -149.5t-101.5 -52.5q-38 0 -65 16t-39 35.5t-29 35.5t-36 16q-51 0 -82 -98 h-92z" />
<glyph unicode="&#xf6;" horiz-adv-x="1194" d="M151 343q0 89 18 204q49 308 175 435t385 127q211 0 305.5 -84.5t94.5 -276.5q0 -88 -18 -201q-48 -304 -175 -433t-385 -129q-212 0 -306 83t-94 275zM299 352q0 -136 60.5 -188.5t205.5 -52.5q185 0 272.5 94t126.5 342q19 119 19 192q0 135 -61.5 189.5t-206.5 54.5 q-126 0 -200.5 -37t-122 -131t-75.5 -268q-18 -115 -18 -195zM520 1385q6 39 37.5 66.5t69.5 27.5t60 -27.5t16 -66.5q-7 -39 -37.5 -66t-68.5 -27t-61 27t-16 66zM842 1385q6 39 37.5 66.5t69.5 27.5t60.5 -27.5t16.5 -66.5q-7 -39 -37.5 -66t-68.5 -27q-39 0 -62 27 t-16 66z" />
<glyph unicode="&#xf7;" horiz-adv-x="1168" d="M134 533l21 137h976l-22 -137h-975zM454 157q0 13 1 19q7 46 45 79t83 33q40 0 66.5 -27t26.5 -67q0 -12 -1 -18q-8 -47 -45 -80t-83 -33q-40 0 -66.5 27t-26.5 67zM589 1010q0 11 1 17q7 46 45 79t83 33q40 0 66.5 -27t26.5 -67q0 -12 -1 -18q-7 -46 -45 -79t-83 -33 q-40 0 -66.5 27.5t-26.5 67.5z" />
<glyph unicode="&#xf8;" horiz-adv-x="1193" d="M128 -27l94 118q-72 84 -72 251q0 83 19 205q49 308 175 435t385 127q169 0 260 -52l93 118l70 -54l-96 -119q72 -85 72 -255q0 -87 -18 -200q-48 -304 -174.5 -433t-384.5 -129q-169 0 -261 51l-93 -117zM298 352q0 -84 23 -136l578 728q-61 39 -184 39q-94 0 -157 -19 t-112 -69t-79 -133.5t-51 -214.5q-18 -115 -18 -195zM379 148q59 -37 186 -37q185 0 272 94t126 342q19 119 19 192q0 84 -24 138z" />
<glyph unicode="&#xf9;" horiz-adv-x="1201" d="M155 243q0 53 14 140l113 711h146l-109 -684q-12 -81 -12 -122q0 -96 57.5 -136.5t211.5 -40.5q69 0 157 15t140 38q17 81 31 171l121 759h145l-132 -830q-14 -91 -35 -187q-221 -92 -495 -92q-104 0 -174.5 18.5t-109 54.5t-54 80t-15.5 105zM536 1557h177l131 -294 h-119z" />
<glyph unicode="&#xfa;" horiz-adv-x="1201" d="M155 243q0 53 14 140l112 711h146l-108 -684q-12 -81 -12 -123q0 -95 57.5 -135.5t211.5 -40.5q68 0 156.5 15t140.5 38q17 81 31 171l120 759h146l-132 -830q-14 -91 -35 -187q-221 -92 -495 -92q-104 0 -174.5 18.5t-109 54.5t-54 80t-15.5 105zM671 1276l224 293h175 l-281 -293h-118z" />
<glyph unicode="&#xfb;" horiz-adv-x="1201" d="M155 243q0 53 14 140l112 711h146l-108 -684q-12 -81 -12 -123q0 -95 57.5 -135.5t211.5 -40.5q69 0 157 15t140 38q14 61 31 171l120 759h146l-132 -830q-14 -91 -35 -187q-221 -92 -495 -92q-104 0 -174.5 18.5t-109 54.5t-54 80.5t-15.5 104.5zM504 1282l236 293h120 l146 -293h-120l-99 203l-165 -203h-118z" />
<glyph unicode="&#xfc;" horiz-adv-x="1201" d="M155 243q0 53 14 140l112 711h147l-109 -684q-12 -81 -12 -123q0 -95 57.5 -135.5t211.5 -40.5q68 0 156.5 15t140.5 38q17 81 31 171l121 759h145l-132 -830q-14 -91 -35 -187q-221 -92 -495 -92q-104 0 -174.5 18.5t-109 54.5t-54 80t-15.5 105zM523 1407q6 39 37 66.5 t70 27.5q38 0 60 -27.5t15 -66.5q-6 -39 -36.5 -66t-68.5 -27t-61 27t-16 66zM845 1407q6 39 37.5 66.5t69.5 27.5q39 0 61 -27.5t16 -66.5q-7 -39 -37.5 -66t-68.5 -27q-39 0 -62 27t-16 66z" />
<glyph unicode="&#xfd;" horiz-adv-x="1035" d="M201 1094h156l214 -822l400 822h148l-737 -1497h-148l239 480zM621 1251l224 294h176l-281 -294h-119z" />
<glyph unicode="&#xfe;" horiz-adv-x="1173" d="M49 -403l290 1835h146l-58 -363q158 40 303 40q199 0 289.5 -81.5t90.5 -273.5q0 -84 -19 -207q-33 -210 -99 -332.5t-171.5 -176t-268.5 -53.5q-142 0 -290 41l-68 -429h-145zM282 152q118 -43 243 -43q111 0 183.5 24t119 81.5t71 133t44.5 199.5q19 117 19 192 q0 132 -66 189.5t-232 57.5q-126 0 -257 -43z" />
<glyph unicode="&#xff;" horiz-adv-x="1035" d="M201 1094h157l213 -822l400 822h149l-737 -1497h-148l239 480zM474 1389q7 39 38.5 66.5t70.5 27.5q38 0 59.5 -27.5t14.5 -66.5q-6 -39 -36.5 -66.5t-68.5 -27.5q-39 0 -61.5 27.5t-16.5 66.5zM798 1389q6 39 37 66.5t70 27.5q38 0 60.5 -27.5t15.5 -66.5 q-6 -39 -37 -66.5t-69 -27.5q-39 0 -61.5 27.5t-15.5 66.5z" />
<glyph unicode="&#x152;" horiz-adv-x="1985" d="M166 417q0 122 28 299q25 161 59.5 276t86 204.5t123 143t167 80t223.5 26.5q158 0 254 -42.5t142 -132.5q21 38 49.5 66t65 45.5t72 28.5t84 16t86.5 6.5t93 1.5q161 0 343 -8l-19 -124h-351q-101 0 -158.5 -10t-96.5 -42.5t-57 -82t-32 -139.5l-38 -235h623l-20 -129 h-623l-42 -264q-12 -81 -12 -120q0 -91 56.5 -122t213.5 -31h351l-19 -125q-157 -7 -347 -7q-47 0 -79 1t-74 4.5t-70.5 10t-60 18.5t-52.5 29t-37.5 42.5t-24.5 58.5q-75 -91 -184 -133t-268 -42q-245 0 -350 101.5t-105 330.5zM318 413q0 -71 15 -122.5t50 -91.5t98.5 -60 t155.5 -20q78 0 141 15.5t108 40.5t81 69.5t59 88.5t42.5 112.5t30.5 126t25 144.5q33 207 33 302q0 72 -15 123.5t-50 91.5t-98.5 60t-155.5 20q-55 0 -102.5 -7t-86 -22t-70 -33t-57.5 -47.5t-46 -57t-36.5 -69t-28.5 -77.5t-23.5 -87.5t-19 -94t-17.5 -102.5 q-33 -207 -33 -303z" />
<glyph unicode="&#x153;" horiz-adv-x="1963" d="M151 343q0 89 18 204q49 308 175 435t385 127q154 0 243 -45.5t124 -144.5q65 99 167.5 144.5t257.5 45.5q214 0 305.5 -87t91.5 -254q0 -74 -13 -152q-7 -41 -20 -104q-93 -16 -256 -31t-278 -20l-256 -11q-3 -39 -3 -73q0 -139 65.5 -202.5t237.5 -63.5q153 0 384 31 l-6 -120q-243 -37 -455 -37q-268 0 -336 197q-66 -103 -170.5 -150t-260.5 -47q-212 0 -306 83t-94 275zM298 352q0 -137 61 -189t206 -52q185 0 272 94t126 342q19 119 19 192q0 135 -61 189.5t-206 54.5q-94 0 -157 -19t-112 -69t-79 -133.5t-51 -214.5q-18 -115 -18 -195 zM1109 563l285 14q189 8 360 30q2 6 14 77q7 49 7 80q0 109 -65 166t-208 57q-100 0 -168.5 -25.5t-112.5 -81.5t-69 -130t-43 -187z" />
<glyph unicode="&#x178;" horiz-adv-x="1135" d="M210 1432h167l247 -715l479 715h162l-591 -875l-88 -557h-156l89 557zM533 1670q6 39 37.5 66.5t70.5 27.5q38 0 60 -27.5t15 -66.5q-6 -39 -36 -66t-69 -27t-61.5 27t-16.5 66zM857 1670q6 39 36.5 66.5t69.5 27.5t61 -27.5t16 -66.5t-37 -66t-70 -27t-60.5 27t-15.5 66 z" />
<glyph unicode="&#x2c6;" horiz-adv-x="661" d="M161 1171l235 293h120l146 -293h-120l-98 202l-165 -202h-118z" />
<glyph unicode="&#x2dc;" horiz-adv-x="707" d="M198 1211q24 97 73 149.5t101 52.5q31 0 54.5 -10.5t37 -25.5t24.5 -30t24.5 -25.5t29.5 -10.5q51 0 82 98h92q-24 -98 -73 -150.5t-102 -52.5q-38 0 -65 16t-39 35.5t-29 35.5t-36 16q-52 0 -83 -98h-91z" />
<glyph unicode="&#x2000;" horiz-adv-x="977" />
<glyph unicode="&#x2001;" horiz-adv-x="1955" />
<glyph unicode="&#x2002;" horiz-adv-x="977" />
<glyph unicode="&#x2003;" horiz-adv-x="1955" />
<glyph unicode="&#x2004;" horiz-adv-x="651" />
<glyph unicode="&#x2005;" horiz-adv-x="488" />
<glyph unicode="&#x2006;" horiz-adv-x="325" />
<glyph unicode="&#x2007;" horiz-adv-x="325" />
<glyph unicode="&#x2008;" horiz-adv-x="244" />
<glyph unicode="&#x2009;" horiz-adv-x="391" />
<glyph unicode="&#x200a;" horiz-adv-x="108" />
<glyph unicode="&#x2010;" horiz-adv-x="801" d="M176 479l21 130h515l-21 -130h-515z" />
<glyph unicode="&#x2011;" horiz-adv-x="801" d="M176 479l21 130h515l-21 -130h-515z" />
<glyph unicode="&#x2012;" horiz-adv-x="801" d="M176 479l21 130h515l-21 -130h-515z" />
<glyph unicode="&#x2013;" horiz-adv-x="1252" d="M176 484l19 121h968l-19 -121h-968z" />
<glyph unicode="&#x2014;" horiz-adv-x="2186" d="M176 484l19 121h1902l-19 -121h-1902z" />
<glyph unicode="&#x2018;" horiz-adv-x="433" d="M149 1029l247 488h120l-204 -488h-163z" />
<glyph unicode="&#x2019;" horiz-adv-x="433" d="M149 1029l204 488h163l-247 -488h-120z" />
<glyph unicode="&#x201a;" horiz-adv-x="431" d="M14 -255l204 488h164l-249 -488h-119z" />
<glyph unicode="&#x201c;" horiz-adv-x="723" d="M149 1029l247 488h120l-204 -488h-163zM438 1029l248 488h120l-204 -488h-164z" />
<glyph unicode="&#x201d;" horiz-adv-x="723" d="M149 1029l204 488h163l-248 -488h-119zM439 1029l204 488h163l-247 -488h-120z" />
<glyph unicode="&#x201e;" horiz-adv-x="721" d="M14 -255l204 488h164l-249 -488h-119zM304 -255l204 488h164l-249 -488h-119z" />
<glyph unicode="&#x2022;" horiz-adv-x="800" d="M120 688q0 116 81.5 198t197.5 82t198.5 -82t82.5 -198t-82.5 -198.5t-198.5 -82.5t-197.5 82.5t-81.5 198.5z" />
<glyph unicode="&#x2026;" horiz-adv-x="1726" d="M135 49q0 10 4 44q10 61 33 85.5t73 24.5q40 0 57.5 -15.5t17.5 -51.5q0 -9 -4 -43q-10 -61 -32 -84.5t-74 -23.5q-41 0 -58 14.5t-17 49.5zM778 48q0 11 4 45q10 61 32.5 85.5t72.5 24.5q40 0 57 -15t17 -51q0 -10 -4 -44q-10 -61 -31.5 -84.5t-72.5 -23.5q-41 0 -58 14 t-17 49zM1419 49q0 1 5 44q9 61 32 85.5t73 24.5q40 0 57.5 -15.5t17.5 -51.5q0 -9 -4 -43q-10 -61 -32 -84.5t-73 -23.5q-41 0 -58.5 14.5t-17.5 49.5z" />
<glyph unicode="&#x202f;" horiz-adv-x="391" />
<glyph unicode="&#x2039;" horiz-adv-x="602" d="M114 530l344 403h147l-317 -403l190 -403h-148z" />
<glyph unicode="&#x203a;" horiz-adv-x="602" d="M80 127l319 403l-191 403h148l216 -403l-343 -403h-149z" />
<glyph unicode="&#x205f;" horiz-adv-x="488" />
<glyph unicode="&#x20ac;" horiz-adv-x="1061" d="M117 528l38 103h127q7 46 10 63l13 80h-137l38 103h120q63 281 184.5 403.5t360.5 122.5q142 0 265 -32l-32 -122q-130 24 -217 24q-79 0 -139.5 -17.5t-103.5 -48.5t-75.5 -81.5t-53.5 -109.5t-38 -139h467l-39 -103h-447l-23 -143h416l-38 -103h-391q-8 -74 -8 -127 q0 -146 64.5 -215.5t225.5 -69.5q84 0 224 23l-7 -121q-137 -33 -275 -33q-209 0 -297 93t-88 299q0 68 9 151h-153z" />
<glyph unicode="&#x2122;" horiz-adv-x="1992" d="M91 1332v100h670v-100h-278v-758h-114v758h-278zM887 574v858h178l289 -676l284 676h176v-858h-115v721h-1l-309 -721h-77l-308 721h-1v-721h-116z" />
<glyph unicode="&#xe000;" horiz-adv-x="1093" d="M0 0v1094h1094v-1094h-1094z" />
</font>
</defs>
</svg>
